<svg xmlns="http://www.w3.org/2000/svg" xmlns:xlink="http://www.w3.org/1999/xlink" viewBox="0 0 463.7 376.26"><defs><style>.cls-1{isolation:isolate;}.cls-2{fill:#f1f1f4;}.cls-3{fill:#e0f3ff;}.cls-4{fill:url(#Áåçûìÿííûé_ãðàäèåíò_29);}.cls-5{fill:url(#Áåçûìÿííûé_ãðàäèåíò_28);}.cls-6{fill:#e5e2ff;}.cls-7{fill:url(#Áåçûìÿííûé_ãðàäèåíò_28-2);}.cls-8,.cls-9{opacity:0.62;}.cls-118,.cls-17,.cls-18,.cls-19,.cls-22,.cls-24,.cls-30,.cls-33,.cls-35,.cls-38,.cls-39,.cls-40,.cls-41,.cls-42,.cls-43,.cls-44,.cls-45,.cls-46,.cls-47,.cls-48,.cls-49,.cls-50,.cls-51,.cls-52,.cls-53,.cls-54,.cls-57,.cls-58,.cls-59,.cls-60,.cls-61,.cls-62,.cls-66,.cls-77,.cls-8,.cls-80,.cls-81,.cls-82,.cls-86,.cls-87,.cls-9,.cls-94,.cls-95,.cls-96,.cls-97,.cls-98,.cls-99{mix-blend-mode:multiply;}.cls-8{fill:url(#Áåçûìÿííûé_ãðàäèåíò_27);}.cls-9{fill:url(#Áåçûìÿííûé_ãðàäèåíò_94);}.cls-10,.cls-118,.cls-13,.cls-14,.cls-22,.cls-24,.cls-39,.cls-40,.cls-41,.cls-42,.cls-43,.cls-44,.cls-45,.cls-46,.cls-47,.cls-49,.cls-51,.cls-52,.cls-53,.cls-54,.cls-57,.cls-59,.cls-60,.cls-61,.cls-62,.cls-82{opacity:0.5;}.cls-10,.cls-13,.cls-14{mix-blend-mode:screen;}.cls-10{fill:url(#Áåçûìÿííûé_ãðàäèåíò_95);}.cls-11{fill:#fff;}.cls-12{fill:url(#Áåçûìÿííûé_ãðàäèåíò_74);}.cls-13{fill:url(#Áåçûìÿííûé_ãðàäèåíò_83);}.cls-14{fill:url(#Áåçûìÿííûé_ãðàäèåíò_83-2);}.cls-15{fill:url(#Áåçûìÿííûé_ãðàäèåíò_26);}.cls-16{fill:url(#Áåçûìÿííûé_ãðàäèåíò_26-2);}.cls-17,.cls-18,.cls-19,.cls-48{opacity:0.76;}.cls-17{fill:url(#Áåçûìÿííûé_ãðàäèåíò_70);}.cls-18{fill:url(#Áåçûìÿííûé_ãðàäèåíò_70-2);}.cls-19{fill:url(#Áåçûìÿííûé_ãðàäèåíò_70-3);}.cls-20{fill:#fe9083;}.cls-21{fill:url(#Áåçûìÿííûé_ãðàäèåíò_354);}.cls-22{fill:url(#Áåçûìÿííûé_ãðàäèåíò_70-4);}.cls-23{fill:url(#Áåçûìÿííûé_ãðàäèåíò_26-3);}.cls-24{fill:url(#Áåçûìÿííûé_ãðàäèåíò_70-5);}.cls-25{fill:url(#Áåçûìÿííûé_ãðàäèåíò_178);}.cls-26{fill:url(#Áåçûìÿííûé_ãðàäèåíò_55);}.cls-27{fill:#cb4d7a;}.cls-28{fill:#ee8183;}.cls-29{fill:url(#Áåçûìÿííûé_ãðàäèåíò_71);}.cls-30,.cls-35,.cls-66,.cls-77,.cls-80,.cls-81,.cls-92,.cls-94{opacity:0.6;}.cls-30{fill:url(#Áåçûìÿííûé_ãðàäèåíò_48);}.cls-31{fill:url(#Áåçûìÿííûé_ãðàäèåíò_71-2);}.cls-32{fill:#e28183;}.cls-33,.cls-38{opacity:0.91;}.cls-33{fill:url(#Áåçûìÿííûé_ãðàäèåíò_73);}.cls-34{fill:url(#Áåçûìÿííûé_ãðàäèåíò_71-3);}.cls-35{fill:url(#Áåçûìÿííûé_ãðàäèåíò_48-2);}.cls-36{fill:url(#Áåçûìÿííûé_ãðàäèåíò_64);}.cls-37{fill:url(#Áåçûìÿííûé_ãðàäèåíò_64-2);}.cls-38{fill:url(#Áåçûìÿííûé_ãðàäèåíò_73-2);}.cls-39{fill:url(#Áåçûìÿííûé_ãðàäèåíò_70-6);}.cls-40{fill:url(#Áåçûìÿííûé_ãðàäèåíò_70-7);}.cls-41{fill:url(#Áåçûìÿííûé_ãðàäèåíò_4);}.cls-42{fill:url(#Áåçûìÿííûé_ãðàäèåíò_4-2);}.cls-43{fill:url(#Áåçûìÿííûé_ãðàäèåíò_4-3);}.cls-44{fill:url(#Áåçûìÿííûé_ãðàäèåíò_4-4);}.cls-45{fill:url(#Áåçûìÿííûé_ãðàäèåíò_4-5);}.cls-46{fill:url(#Áåçûìÿííûé_ãðàäèåíò_4-6);}.cls-47{fill:url(#Áåçûìÿííûé_ãðàäèåíò_4-7);}.cls-48{fill:url(#Áåçûìÿííûé_ãðàäèåíò_70-8);}.cls-49{fill:url(#Áåçûìÿííûé_ãðàäèåíò_70-9);}.cls-50,.cls-58,.cls-95,.cls-96,.cls-97,.cls-98{opacity:0.3;}.cls-50{fill:url(#Áåçûìÿííûé_ãðàäèåíò_70-10);}.cls-51{fill:url(#Áåçûìÿííûé_ãðàäèåíò_4-8);}.cls-52{fill:url(#Áåçûìÿííûé_ãðàäèåíò_70-11);}.cls-53{fill:url(#Áåçûìÿííûé_ãðàäèåíò_4-9);}.cls-54{fill:url(#Áåçûìÿííûé_ãðàäèåíò_4-10);}.cls-55{fill:url(#Áåçûìÿííûé_ãðàäèåíò_25);}.cls-56{fill:#ebefff;}.cls-57{fill:url(#Áåçûìÿííûé_ãðàäèåíò_70-12);}.cls-58{fill:url(#Áåçûìÿííûé_ãðàäèåíò_70-13);}.cls-59{fill:url(#Áåçûìÿííûé_ãðàäèåíò_70-14);}.cls-60{fill:url(#Áåçûìÿííûé_ãðàäèåíò_70-15);}.cls-61{fill:url(#Áåçûìÿííûé_ãðàäèåíò_70-16);}.cls-62{fill:#7a4ac0;}.cls-63{fill:url(#Áåçûìÿííûé_ãðàäèåíò_71-4);}.cls-64{fill:url(#Áåçûìÿííûé_ãðàäèåíò_71-5);}.cls-65{fill:url(#Áåçûìÿííûé_ãðàäèåíò_387);}.cls-66{fill:url(#Áåçûìÿííûé_ãðàäèåíò_48-3);}.cls-67{fill:#38368e;}.cls-68{fill:url(#Áåçûìÿííûé_ãðàäèåíò_59);}.cls-69{fill:url(#Áåçûìÿííûé_ãðàäèåíò_184);}.cls-70{fill:#ffebed;}.cls-71{fill:#7f9ec9;}.cls-72{fill:#131163;}.cls-73{fill:#c6659c;}.cls-74{fill:#cb5f7d;}.cls-75{fill:#9f4a8b;}.cls-76{fill:#ffbcaf;}.cls-77{fill:url(#Áåçûìÿííûé_ãðàäèåíò_48-4);}.cls-78{fill:url(#Áåçûìÿííûé_ãðàäèåíò_292);}.cls-79{fill:#d2726c;}.cls-80{fill:url(#Áåçûìÿííûé_ãðàäèåíò_35);}.cls-81{fill:url(#Áåçûìÿííûé_ãðàäèåíò_52);}.cls-82{fill:url(#Áåçûìÿííûé_ãðàäèåíò_397);}.cls-83{fill:url(#Áåçûìÿííûé_ãðàäèåíò_141);}.cls-84{fill:url(#Áåçûìÿííûé_ãðàäèåíò_141-2);}.cls-85{fill:url(#Áåçûìÿííûé_ãðàäèåíò_141-3);}.cls-86,.cls-87{opacity:0.8;}.cls-86{fill:url(#Áåçûìÿííûé_ãðàäèåíò_285);}.cls-87{fill:url(#Áåçûìÿííûé_ãðàäèåíò_285-2);}.cls-88{fill:#34c7ff;}.cls-89{fill:url(#Áåçûìÿííûé_ãðàäèåíò_141-4);}.cls-90{fill:url(#Áåçûìÿííûé_ãðàäèåíò_141-5);}.cls-91{fill:url(#Áåçûìÿííûé_ãðàäèåíò_141-6);}.cls-92{fill:#36d1f7;}.cls-93{fill:#744ca2;}.cls-94{fill:url(#Áåçûìÿííûé_ãðàäèåíò_89);}.cls-95{fill:url(#Áåçûìÿííûé_ãðàäèåíò_85);}.cls-96{fill:url(#Áåçûìÿííûé_ãðàäèåíò_85-2);}.cls-97{fill:url(#Áåçûìÿííûé_ãðàäèåíò_85-3);}.cls-98{fill:url(#Áåçûìÿííûé_ãðàäèåíò_85-4);}.cls-99{fill:#d1d4fb;}.cls-100,.cls-119{mix-blend-mode:soft-light;}.cls-101{fill:#e0ffff;}.cls-102{fill:url(#Áåçûìÿííûé_ãðàäèåíò_65);}.cls-103{fill:url(#Áåçûìÿííûé_ãðàäèåíò_14);}.cls-104{opacity:0.81;fill:url(#Áåçûìÿííûé_ãðàäèåíò_115);}.cls-105{fill:#473da2;}.cls-106{fill:url(#Áåçûìÿííûé_ãðàäèåíò_302);}.cls-107{fill:url(#Áåçûìÿííûé_ãðàäèåíò_302-2);}.cls-108{fill:url(#Áåçûìÿííûé_ãðàäèåíò_322);}.cls-109{fill:url(#Áåçûìÿííûé_ãðàäèåíò_322-2);}.cls-110{fill:url(#Áåçûìÿííûé_ãðàäèåíò_25-2);}.cls-111{fill:url(#Áåçûìÿííûé_ãðàäèåíò_25-3);}.cls-112,.cls-114{opacity:0.73;}.cls-112{fill:url(#Áåçûìÿííûé_ãðàäèåíò_97);}.cls-113{fill:#953da2;}.cls-114{fill:url(#Áåçûìÿííûé_ãðàäèåíò_97-2);}.cls-115,.cls-116,.cls-117,.cls-118,.cls-119,.cls-123,.cls-124,.cls-125,.cls-126{fill-rule:evenodd;}.cls-115{fill:url(#Áåçûìÿííûé_ãðàäèåíò_206);}.cls-116{fill:url(#Áåçûìÿííûé_ãðàäèåíò_206-2);}.cls-117{fill:url(#Áåçûìÿííûé_ãðàäèåíò_107);}.cls-118{fill:#601734;}.cls-119{fill:#b3d9ff;}.cls-120{fill:#ff1d9c;}.cls-121{fill:#6877ff;}.cls-122{fill:#4f31e0;}.cls-123{fill:url(#Áåçûìÿííûé_ãðàäèåíò_107-2);}.cls-124{fill:url(#Áåçûìÿííûé_ãðàäèåíò_206-3);}.cls-125{fill:url(#Áåçûìÿííûé_ãðàäèåíò_107-3);}.cls-126{fill:url(#Áåçûìÿííûé_ãðàäèåíò_206-4);}</style><linearGradient id="Áåçûìÿííûé_ãðàäèåíò_29" x1="74.54" y1="238.24" x2="74.54" y2="167.05" gradientTransform="matrix(0.91, -0.42, 0.42, 0.91, -65.54, 22.63)" gradientUnits="userSpaceOnUse"><stop offset="0" stop-color="#dbccff"/><stop offset="1" stop-color="#d1bbff"/></linearGradient><linearGradient id="Áåçûìÿííûé_ãðàäèåíò_28" x1="74.54" y1="241.02" x2="74.54" y2="169.83" gradientTransform="matrix(0.91, -0.42, 0.42, 0.91, -65.54, 22.63)" gradientUnits="userSpaceOnUse"><stop offset="0" stop-color="#b5a6e7"/><stop offset="1" stop-color="#7760bf"/></linearGradient><linearGradient id="Áåçûìÿííûé_ãðàäèåíò_28-2" x1="74.54" y1="223.32" x2="74.54" y2="193.31" xlink:href="#Áåçûìÿííûé_ãðàäèåíò_28"/><linearGradient id="Áåçûìÿííûé_ãðàäèåíò_27" x1="70.28" y1="193.91" x2="78.79" y2="193.91" gradientTransform="matrix(0.91, -0.42, 0.42, 0.91, -65.54, 22.63)" gradientUnits="userSpaceOnUse"><stop offset="0" stop-color="#8b8be0"/><stop offset="1" stop-color="#a177b7"/></linearGradient><linearGradient id="Áåçûìÿííûé_ãðàäèåíò_94" x1="74.54" y1="195.89" x2="74.54" y2="190.73" gradientTransform="matrix(0.91, -0.42, 0.42, 0.91, -65.54, 22.63)" gradientUnits="userSpaceOnUse"><stop offset="0" stop-color="#fff"/><stop offset="1" stop-color="#a177b7"/></linearGradient><linearGradient id="Áåçûìÿííûé_ãðàäèåíò_95" x1="79.04" y1="226.38" x2="79.04" y2="193.3" gradientTransform="matrix(0.91, -0.42, 0.42, 0.91, -65.54, 22.63)" gradientUnits="userSpaceOnUse"><stop offset="0"/><stop offset="1" stop-color="#fff"/></linearGradient><linearGradient id="Áåçûìÿííûé_ãðàäèåíò_74" x1="215" y1="363.04" x2="215" y2="273.83" gradientUnits="userSpaceOnUse"><stop offset="0" stop-color="#6456c0"/><stop offset="1" stop-color="#5f2c95"/></linearGradient><radialGradient id="Áåçûìÿííûé_ãðàäèåíò_83" cx="167.2" cy="331.69" r="27.03" gradientTransform="matrix(0, 0.66, -1.71, 0, 739.9, 220.07)" gradientUnits="userSpaceOnUse"><stop offset="0" stop-color="#4b474b"/><stop offset="1"/></radialGradient><radialGradient id="Áåçûìÿííûé_ãðàäèåíò_83-2" cx="286.03" cy="315.85" r="27.03" gradientTransform="matrix(0.66, 0, 0, 1.71, 65.08, -210.67)" xlink:href="#Áåçûìÿííûé_ãðàäèåíò_83"/><linearGradient id="Áåçûìÿííûé_ãðàäèåíò_26" x1="186.13" y1="331.72" x2="209.53" y2="331.72" gradientUnits="userSpaceOnUse"><stop offset="0" stop-color="#9e8cef"/><stop offset="1" stop-color="#caafee"/></linearGradient><linearGradient id="Áåçûìÿííûé_ãðàäèåíò_26-2" x1="276.23" y1="331.72" x2="299.63" y2="331.72" gradientTransform="matrix(-1, 0, 0, 1, 517.04, 0)" xlink:href="#Áåçûìÿííûé_ãðàäèåíò_26"/><linearGradient id="Áåçûìÿííûé_ãðàäèåíò_70" x1="211.86" y1="363.04" x2="211.86" y2="273.83" gradientUnits="userSpaceOnUse"><stop offset="0" stop-color="#ccf"/><stop offset="1" stop-color="#755cbb"/></linearGradient><linearGradient id="Áåçûìÿííûé_ãðàäèåíò_70-2" x1="222.25" y1="318.43" x2="222.25" y2="294.1" xlink:href="#Áåçûìÿííûé_ãðàäèåíò_70"/><linearGradient id="Áåçûìÿííûé_ãðàäèåíò_70-3" x1="194.07" y1="309.48" x2="194.07" y2="285.65" xlink:href="#Áåçûìÿííûé_ãðàäèåíò_70"/><linearGradient id="Áåçûìÿííûé_ãðàäèåíò_354" x1="218.25" y1="139.49" x2="218.25" y2="103.88" gradientUnits="userSpaceOnUse"><stop offset="0" stop-color="#d5cdf8"/><stop offset="1" stop-color="#f3edfb"/></linearGradient><linearGradient id="Áåçûìÿííûé_ãðàäèåíò_70-4" x1="199.91" y1="121.65" x2="236.58" y2="121.65" xlink:href="#Áåçûìÿííûé_ãðàäèåíò_70"/><linearGradient id="Áåçûìÿííûé_ãðàäèåíò_26-3" x1="207.76" y1="281.77" x2="207.76" y2="102.33" xlink:href="#Áåçûìÿííûé_ãðàäèåíò_26"/><linearGradient id="Áåçûìÿííûé_ãðàäèåíò_70-5" x1="133.29" y1="169.95" x2="176.99" y2="169.95" xlink:href="#Áåçûìÿííûé_ãðàäèåíò_70"/><linearGradient id="Áåçûìÿííûé_ãðàäèåíò_178" x1="131.94" y1="220.21" x2="131.94" y2="136.3" gradientUnits="userSpaceOnUse"><stop offset="0" stop-color="#9e8cef"/><stop offset="1" stop-color="#dac7f3"/></linearGradient><linearGradient id="Áåçûìÿííûé_ãðàäèåíò_55" x1="276.23" y1="196.02" x2="332.54" y2="196.02" gradientUnits="userSpaceOnUse"><stop offset="0" stop-color="#a999f1"/><stop offset="1" stop-color="#dac7f3"/></linearGradient><linearGradient id="Áåçûìÿííûé_ãðàäèåíò_71" x1="113.63" y1="124.86" x2="113.63" y2="102.73" gradientUnits="userSpaceOnUse"><stop offset="0.02" stop-color="#ffc2a9"/><stop offset="1" stop-color="#ff9595"/></linearGradient><linearGradient id="Áåçûìÿííûé_ãðàäèåíò_48" x1="127.56" y1="124.33" x2="127.56" y2="87.71" gradientUnits="userSpaceOnUse"><stop offset="0" stop-color="#ffeadb"/><stop offset="0.99" stop-color="#c27cb6"/></linearGradient><linearGradient id="Áåçûìÿííûé_ãðàäèåíò_71-2" x1="126.37" y1="149.25" x2="126.37" y2="92.79" xlink:href="#Áåçûìÿííûé_ãðàäèåíò_71"/><linearGradient id="Áåçûìÿííûé_ãðàäèåíò_73" x1="116.27" y1="140.44" x2="134.03" y2="140.44" gradientUnits="userSpaceOnUse"><stop offset="0.02" stop-color="#d1a1d6"/><stop offset="0.99" stop-color="#bd89c4"/></linearGradient><linearGradient id="Áåçûìÿííûé_ãðàäèåíò_71-3" x1="333.7" y1="183.64" x2="333.7" y2="108.14" xlink:href="#Áåçûìÿííûé_ãðàäèåíò_71"/><linearGradient id="Áåçûìÿííûé_ãðàäèåíò_48-2" x1="342.62" y1="159.45" x2="342.62" y2="121.94" xlink:href="#Áåçûìÿííûé_ãðàäèåíò_48"/><linearGradient id="Áåçûìÿííûé_ãðàäèåíò_64" x1="350.02" y1="146.5" x2="350.02" y2="129.69" gradientUnits="userSpaceOnUse"><stop offset="0" stop-color="#ffb0b0"/><stop offset="0.98" stop-color="#ffc2a9"/></linearGradient><linearGradient id="Áåçûìÿííûé_ãðàäèåíò_64-2" x1="359.77" y1="149.09" x2="359.77" y2="139.87" xlink:href="#Áåçûìÿííûé_ãðàäèåíò_64"/><linearGradient id="Áåçûìÿííûé_ãðàäèåíò_73-2" x1="320.33" y1="167.47" x2="337.48" y2="167.47" xlink:href="#Áåçûìÿííûé_ãðàäèåíò_73"/><linearGradient id="Áåçûìÿííûé_ãðàäèåíò_70-6" x1="296.47" y1="226.66" x2="296.47" y2="142.15" xlink:href="#Áåçûìÿííûé_ãðàäèåíò_70"/><linearGradient id="Áåçûìÿííûé_ãðàäèåíò_70-7" x1="110.39" y1="209.63" x2="251.74" y2="209.63" xlink:href="#Áåçûìÿííûé_ãðàäèåíò_70"/><linearGradient id="Áåçûìÿííûé_ãðàäèåíò_4" x1="235.01" y1="185.98" x2="262.03" y2="185.98" gradientUnits="userSpaceOnUse"><stop offset="0" stop-color="#ccedff"/><stop offset="1" stop-color="#755cbb"/></linearGradient><linearGradient id="Áåçûìÿííûé_ãðàäèåíò_4-2" x1="210.5" y1="233.4" x2="250.21" y2="233.4" xlink:href="#Áåçûìÿííûé_ãðàäèåíò_4"/><linearGradient id="Áåçûìÿííûé_ãðàäèåíò_4-3" x1="212.34" y1="251.35" x2="254.76" y2="251.35" xlink:href="#Áåçûìÿííûé_ãðàäèåíò_4"/><linearGradient id="Áåçûìÿííûé_ãðàäèåíò_4-4" x1="175.83" y1="206.9" x2="175.83" y2="159.29" xlink:href="#Áåçûìÿííûé_ãðàäèåíò_4"/><linearGradient id="Áåçûìÿííûé_ãðàäèåíò_4-5" x1="179.67" y1="210.9" x2="179.67" y2="174.81" xlink:href="#Áåçûìÿííûé_ãðàäèåíò_4"/><linearGradient id="Áåçûìÿííûé_ãðàäèåíò_4-6" x1="122.63" y1="164.76" x2="122.63" y2="137.5" xlink:href="#Áåçûìÿííûé_ãðàäèåíò_4"/><linearGradient id="Áåçûìÿííûé_ãðàäèåíò_4-7" x1="144.69" y1="140.75" x2="155.68" y2="140.75" xlink:href="#Áåçûìÿííûé_ãðàäèåíò_4"/><linearGradient id="Áåçûìÿííûé_ãðàäèåíò_70-8" x1="264.15" y1="206.9" x2="264.15" y2="156.36" xlink:href="#Áåçûìÿííûé_ãðàäèåíò_70"/><linearGradient id="Áåçûìÿííûé_ãðàäèåíò_70-9" x1="320.97" y1="196.03" x2="320.97" y2="169.62" xlink:href="#Áåçûìÿííûé_ãðàäèåíò_70"/><linearGradient id="Áåçûìÿííûé_ãðàäèåíò_70-10" x1="291.02" y1="194.85" x2="291.02" y2="174.66" xlink:href="#Áåçûìÿííûé_ãðàäèåíò_70"/><linearGradient id="Áåçûìÿííûé_ãðàäèåíò_4-8" x1="116.92" y1="166.51" x2="116.92" y2="159.01" xlink:href="#Áåçûìÿííûé_ãðàäèåíò_4"/><linearGradient id="Áåçûìÿííûé_ãðàäèåíò_70-11" x1="136.95" y1="189.36" x2="136.95" y2="148.39" xlink:href="#Áåçûìÿííûé_ãðàäèåíò_70"/><linearGradient id="Áåçûìÿííûé_ãðàäèåíò_4-9" x1="242.37" y1="160.52" x2="242.37" y2="129.69" xlink:href="#Áåçûìÿííûé_ãðàäèåíò_4"/><linearGradient id="Áåçûìÿííûé_ãðàäèåíò_4-10" x1="201.98" y1="156.35" x2="201.98" y2="113.79" xlink:href="#Áåçûìÿííûé_ãðàäèåíò_4"/><linearGradient id="Áåçûìÿííûé_ãðàäèåíò_25" x1="187.6" y1="164.14" x2="258.69" y2="164.14" gradientUnits="userSpaceOnUse"><stop offset="0" stop-color="#8642a0"/><stop offset="1" stop-color="#6456c0"/></linearGradient><linearGradient id="Áåçûìÿííûé_ãðàäèåíò_70-12" x1="193.73" y1="123.12" x2="239.99" y2="123.12" xlink:href="#Áåçûìÿííûé_ãðàäèåíò_70"/><linearGradient id="Áåçûìÿííûé_ãðàäèåíò_70-13" x1="312.65" y1="193.02" x2="312.65" y2="166.24" xlink:href="#Áåçûìÿííûé_ãðàäèåíò_70"/><linearGradient id="Áåçûìÿííûé_ãðàäèåíò_70-14" x1="274.81" y1="223.22" x2="274.81" y2="142.15" xlink:href="#Áåçûìÿííûé_ãðàäèåíò_70"/><linearGradient id="Áåçûìÿííûé_ãðàäèåíò_70-15" x1="187.65" y1="261.3" x2="187.65" y2="238.06" xlink:href="#Áåçûìÿííûé_ãðàäèåíò_70"/><linearGradient id="Áåçûìÿííûé_ãðàäèåíò_70-16" x1="232.8" y1="254.91" x2="232.8" y2="243.63" xlink:href="#Áåçûìÿííûé_ãðàäèåíò_70"/><linearGradient id="Áåçûìÿííûé_ãðàäèåíò_71-4" x1="232.3" y1="109.85" x2="232.3" y2="32.64" xlink:href="#Áåçûìÿííûé_ãðàäèåíò_71"/><linearGradient id="Áåçûìÿííûé_ãðàäèåíò_71-5" x1="203.52" y1="78.69" x2="203.52" y2="55.93" xlink:href="#Áåçûìÿííûé_ãðàäèåíò_71"/><linearGradient id="Áåçûìÿííûé_ãðàäèåíò_387" x1="243.03" y1="87.3" x2="243.99" y2="82.33" gradientUnits="userSpaceOnUse"><stop offset="0" stop-color="#e1616a"/><stop offset="1" stop-color="#ff8883"/></linearGradient><linearGradient id="Áåçûìÿííûé_ãðàäèåíò_48-3" x1="234.42" y1="83.5" x2="234.42" y2="33.76" xlink:href="#Áåçûìÿííûé_ãðàäèåíò_48"/><linearGradient id="Áåçûìÿííûé_ãðàäèåíò_59" x1="231.99" y1="63.13" x2="231.99" y2="53.28" gradientUnits="userSpaceOnUse"><stop offset="0" stop-color="#cf6074"/><stop offset="1" stop-color="#f37270"/></linearGradient><linearGradient id="Áåçûìÿííûé_ãðàäèåíò_184" x1="251.65" y1="66.26" x2="251.65" y2="57.68" gradientUnits="userSpaceOnUse"><stop offset="0" stop-color="#cf6074"/><stop offset="1" stop-color="#ff817f"/></linearGradient><linearGradient id="Áåçûìÿííûé_ãðàäèåíò_48-4" x1="252.45" y1="71.25" x2="252.45" y2="51.95" xlink:href="#Áåçûìÿííûé_ãðàäèåíò_48"/><linearGradient id="Áåçûìÿííûé_ãðàäèåíò_292" x1="233.34" y1="110.82" x2="233.34" y2="17.19" gradientUnits="userSpaceOnUse"><stop offset="0" stop-color="#2e33a0"/><stop offset="1" stop-color="#0665a5"/></linearGradient><linearGradient id="Áåçûìÿííûé_ãðàäèåíò_35" x1="257.93" y1="51.86" x2="257.93" y2="30.26" gradientUnits="userSpaceOnUse"><stop offset="0" stop-color="#ffeadb"/><stop offset="0.99" stop-color="#8860c7"/></linearGradient><linearGradient id="Áåçûìÿííûé_ãðàäèåíò_52" x1="228.5" y1="110.82" x2="228.5" y2="17.19" gradientUnits="userSpaceOnUse"><stop offset="0" stop-color="#ccc2db"/><stop offset="0.99" stop-color="#8860c7"/></linearGradient><linearGradient id="Áåçûìÿííûé_ãðàäèåíò_397" x1="234.77" y1="110.8" x2="234.77" y2="106.78" gradientUnits="userSpaceOnUse"><stop offset="0" stop-color="#776d7e"/><stop offset="1" stop-color="#9d68c2"/></linearGradient><linearGradient id="Áåçûìÿííûé_ãðàäèåíò_141" x1="246.58" y1="23.91" x2="246.58" y2="20.92" gradientUnits="userSpaceOnUse"><stop offset="0" stop-color="#1f77d1"/><stop offset="1" stop-color="#0686c9"/></linearGradient><linearGradient id="Áåçûìÿííûé_ãðàäèåíò_141-2" x1="227.54" y1="33.75" x2="227.54" y2="24.91" xlink:href="#Áåçûìÿííûé_ãðàäèåíò_141"/><linearGradient id="Áåçûìÿííûé_ãðàäèåíò_141-3" x1="259.56" y1="38.23" x2="259.56" y2="30.26" xlink:href="#Áåçûìÿííûé_ãðàäèåíò_141"/><linearGradient id="Áåçûìÿííûé_ãðàäèåíò_285" x1="206.83" y1="73.3" x2="196.64" y2="60.81" gradientUnits="userSpaceOnUse"><stop offset="0" stop-color="#ffeadb"/><stop offset="0.99" stop-color="#b060f4"/></linearGradient><linearGradient id="Áåçûìÿííûé_ãðàäèåíò_285-2" x1="207.9" y1="71.69" x2="202.88" y2="65.54" xlink:href="#Áåçûìÿííûé_ãðàäèåíò_285"/><linearGradient id="Áåçûìÿííûé_ãðàäèåíò_141-4" x1="226.95" y1="34.54" x2="244.21" y2="34.54" xlink:href="#Áåçûìÿííûé_ãðàäèåíò_141"/><linearGradient id="Áåçûìÿííûé_ãðàäèåíò_141-5" x1="251.3" y1="86.18" x2="256.54" y2="86.18" xlink:href="#Áåçûìÿííûé_ãðàäèåíò_141"/><linearGradient id="Áåçûìÿííûé_ãðàäèåíò_141-6" x1="244.84" y1="82.28" x2="250.48" y2="82.28" xlink:href="#Áåçûìÿííûé_ãðàäèåíò_141"/><linearGradient id="Áåçûìÿííûé_ãðàäèåíò_89" x1="286.5" y1="95.98" x2="463.56" y2="95.98" gradientUnits="userSpaceOnUse"><stop offset="0" stop-color="#9d68c2"/><stop offset="1" stop-color="#aec2ff"/></linearGradient><linearGradient id="Áåçûìÿííûé_ãðàäèåíò_85" x1="322.52" y1="162.86" x2="322.52" y2="109.45" gradientUnits="userSpaceOnUse"><stop offset="0" stop-color="#ccedff"/><stop offset="1" stop-color="#9d68c2"/></linearGradient><linearGradient id="Áåçûìÿííûé_ãðàäèåíò_85-2" x1="413.58" y1="136.82" x2="413.58" y2="113.3" xlink:href="#Áåçûìÿííûé_ãðàäèåíò_85"/><linearGradient id="Áåçûìÿííûé_ãðàäèåíò_85-3" x1="441.33" y1="136.82" x2="441.33" y2="113.3" xlink:href="#Áåçûìÿííûé_ãðàäèåíò_85"/><linearGradient id="Áåçûìÿííûé_ãðàäèåíò_85-4" x1="385.36" y1="136.82" x2="385.36" y2="113.3" xlink:href="#Áåçûìÿííûé_ãðàäèåíò_85"/><linearGradient id="Áåçûìÿííûé_ãðàäèåíò_65" x1="132.37" y1="79.02" x2="132.37" y2="54.4" gradientUnits="userSpaceOnUse"><stop offset="0" stop-color="#d93de3"/><stop offset="1" stop-color="#ff6dba"/></linearGradient><linearGradient id="Áåçûìÿííûé_ãðàäèåíò_14" x1="147.42" y1="79.02" x2="147.42" y2="54.4" gradientUnits="userSpaceOnUse"><stop offset="0" stop-color="#a242ea"/><stop offset="1" stop-color="#fe117e"/></linearGradient><linearGradient id="Áåçûìÿííûé_ãðàäèåíò_115" x1="128.1" y1="338.41" x2="141.41" y2="232.39" gradientUnits="userSpaceOnUse"><stop offset="0" stop-color="#067eff"/><stop offset="1" stop-color="#3e37a0"/></linearGradient><linearGradient id="Áåçûìÿííûé_ãðàäèåíò_302" x1="438.95" y1="76.35" x2="438.95" y2="67.41" gradientUnits="userSpaceOnUse"><stop offset="0" stop-color="#459fff"/><stop offset="1" stop-color="#a96dff"/></linearGradient><linearGradient id="Áåçûìÿííûé_ãðàäèåíò_302-2" x1="18.96" y1="181.08" x2="18.96" y2="169.95" xlink:href="#Áåçûìÿííûé_ãðàäèåíò_302"/><linearGradient id="Áåçûìÿííûé_ãðàäèåíò_322" x1="452.08" y1="76.35" x2="452.08" y2="67.41" gradientUnits="userSpaceOnUse"><stop offset="0" stop-color="#b31a8f"/><stop offset="1" stop-color="#fe117e"/></linearGradient><linearGradient id="Áåçûìÿííûé_ãðàäèåíò_322-2" x1="163.91" y1="105.76" x2="163.91" y2="99.44" xlink:href="#Áåçûìÿííûé_ãðàäèåíò_322"/><linearGradient id="Áåçûìÿííûé_ãðàäèåíò_25-2" x1="375.56" y1="245.2" x2="375.56" y2="238.88" xlink:href="#Áåçûìÿííûé_ãðàäèåíò_25"/><linearGradient id="Áåçûìÿííûé_ãðàäèåíò_25-3" x1="47.04" y1="276.37" x2="47.04" y2="270.72" xlink:href="#Áåçûìÿííûé_ãðàäèåíò_25"/><linearGradient id="Áåçûìÿííûé_ãðàäèåíò_97" x1="70.75" y1="245.81" x2="70.75" y2="199.15" gradientUnits="userSpaceOnUse"><stop offset="0" stop-color="#d906e3"/><stop offset="1" stop-color="#ff6df9"/></linearGradient><linearGradient id="Áåçûìÿííûé_ãðàäèåíò_97-2" x1="392.94" y1="311.86" x2="392.94" y2="253.48" xlink:href="#Áåçûìÿííûé_ãðàäèåíò_97"/><linearGradient id="Áåçûìÿííûé_ãðàäèåíò_206" x1="339.02" y1="238.24" x2="334.05" y2="195.55" gradientTransform="matrix(0.97, 0.26, -0.26, 0.97, 51.78, -38.98)" gradientUnits="userSpaceOnUse"><stop offset="0" stop-color="#1852a0"/><stop offset="1" stop-color="#067ed3"/></linearGradient><linearGradient id="Áåçûìÿííûé_ãðàäèåíò_206-2" x1="334.2" y1="238.4" x2="334.2" y2="194.66" xlink:href="#Áåçûìÿííûé_ãðàäèåíò_206"/><linearGradient id="Áåçûìÿííûé_ãðàäèåíò_107" x1="296.64" y1="252.31" x2="293.42" y2="224.7" gradientTransform="matrix(0.94, 0.33, -0.52, 1.49, 158.44, -196.4)" gradientUnits="userSpaceOnUse"><stop offset="0" stop-color="#188dc1"/><stop offset="1" stop-color="#06bfe7"/></linearGradient><linearGradient id="Áåçûìÿííûé_ãðàäèåíò_107-2" x1="347.05" y1="51.13" x2="358.39" y2="9.05" gradientTransform="matrix(1, 0, 0, 1, 0, 0)" xlink:href="#Áåçûìÿííûé_ãðàäèåíò_107"/><linearGradient id="Áåçûìÿííûé_ãðàäèåíò_206-3" x1="327.58" y1="46.28" x2="336.03" y2="14.9" gradientTransform="matrix(1, 0, 0, 1, 0, 0)" xlink:href="#Áåçûìÿííûé_ãðàäèåíò_206"/><linearGradient id="Áåçûìÿííûé_ãðàäèåíò_107-3" x1="56.63" y1="123.61" x2="64.35" y2="94.92" gradientTransform="matrix(-1, 0, 0, 1, 76.06, 0)" xlink:href="#Áåçûìÿííûé_ãðàäèåíò_107"/><linearGradient id="Áåçûìÿííûé_ãðàäèåíò_206-4" x1="43.35" y1="120.3" x2="49.11" y2="98.9" gradientTransform="matrix(-1, 0, 0, 1, 76.06, 0)" xlink:href="#Áåçûìÿííûé_ãðàäèåíò_206"/></defs><g class="cls-1"><g id="Layer_2" data-name="Layer 2"><g id="illustration"><path class="cls-2" d="M82.91,159.13c0-.24.13-.36.36-.35L90,159a5,5,0,0,1,1.68.3,2.66,2.66,0,0,1,1.11.75,2.77,2.77,0,0,1,.6,1.14,5.63,5.63,0,0,1,.15,1.47l-.06,1.84a4.7,4.7,0,0,1-.24,1.46,2.6,2.6,0,0,1-.66,1.1,2.8,2.8,0,0,1-1.15.68,4.87,4.87,0,0,1-1.7.2l-3.62-.11-.74-2.11h-.1l-.06,2.09-2.54-.08Zm2.35,6.33,4.28.13a1.38,1.38,0,0,0,1-.28,1.63,1.63,0,0,0,.35-1.13l0-1.49a1.59,1.59,0,0,0-.27-1.15,1.41,1.41,0,0,0-1-.33l-4.11-.13a.19.19,0,0,0-.13,0,.18.18,0,0,0-.06.13Z"/><path class="cls-2" d="M97.15,163h-.09L97,165.65a.15.15,0,0,0,.17.17l7.54.23-.07,2.33-9.89-.3a.32.32,0,0,1-.34-.38l.25-8.21q0-.37.36-.36l9.61.29a.33.33,0,0,1,.36.38l-.07,2.33-2.38.8h-.1l0-1.19c0-.09,0-.14-.12-.14l-5.07-.15c-.07,0-.11,0-.13.05a.56.56,0,0,0,0,.12l0,1.11,4.18.13-.06,1.82-3.5-.11Z"/><path class="cls-2" d="M113.91,162.8h-.09l0-1a.13.13,0,0,0-.15-.15l-4.71-.15a.47.47,0,0,0-.36.1.44.44,0,0,0-.11.32v.22a.4.4,0,0,0,.08.33.57.57,0,0,0,.32.13l5.53.94a3.65,3.65,0,0,1,.89.25,1.56,1.56,0,0,1,.59.43,1.45,1.45,0,0,1,.32.63,3.3,3.3,0,0,1,.07.87l0,.71a3.18,3.18,0,0,1-.17,1,1.68,1.68,0,0,1-.46.7,2.08,2.08,0,0,1-.83.41,4.53,4.53,0,0,1-1.24.11l-8-.24.07-2.33,7.14.22a.56.56,0,0,0,.42-.1.61.61,0,0,0,.12-.41v-.25a.52.52,0,0,0-.07-.32.45.45,0,0,0-.31-.13l-5.34-.84a4.06,4.06,0,0,1-.92-.25,1.72,1.72,0,0,1-.62-.41,1.46,1.46,0,0,1-.34-.61,3.18,3.18,0,0,1-.08-.86l0-.62a2.06,2.06,0,0,1,.56-1.49,2.27,2.27,0,0,1,1.74-.48l7.94.24a.34.34,0,0,1,.37.4l0,1.85Z"/><path class="cls-2" d="M117.27,168.76l.28-8.94,2.53.07-.27,9Z"/><path class="cls-2" d="M129.2,165.28c0-.13,0-.26,0-.41s0-.27,0-.37v-.11l2.51.07-.14,4.39c0,.23-.11.34-.31.33l-6.73-.2a4.81,4.81,0,0,1-1.69-.31,2.89,2.89,0,0,1-1.11-.74,2.7,2.7,0,0,1-.59-1.14,5.22,5.22,0,0,1-.16-1.47l.06-1.85a5.44,5.44,0,0,1,.24-1.46,3,3,0,0,1,.66-1.1,2.78,2.78,0,0,1,1.15-.67,4.91,4.91,0,0,1,1.71-.21l6.69.21a.32.32,0,0,1,.35.38l-.06,1.93-2.37.79h-.1l0-.86c0-.08,0-.12-.1-.12l-4.28-.13a2.89,2.89,0,0,0-.62,0,.86.86,0,0,0-.42.23,1,1,0,0,0-.25.43,3,3,0,0,0-.09.68l0,1.57a1.71,1.71,0,0,0,.27,1.14,1.38,1.38,0,0,0,1,.35l4.24.13c.09,0,.13,0,.13-.14Z"/><path class="cls-2" d="M137,160.41a.67.67,0,0,1,.4.1.86.86,0,0,1,.2.27l3.2,6.53a.25.25,0,0,0,.23.15h.13c.13,0,.2-.06.2-.19l.21-6.73,2.3.07-.27,8.58c0,.24-.12.36-.35.35l-3.64-.11a.84.84,0,0,1-.38-.09.59.59,0,0,1-.23-.29l-3.32-6.52a.24.24,0,0,0-.23-.15h-.12c-.13,0-.2.05-.21.19l-.2,6.72-2.3-.07.26-8.58a.33.33,0,0,1,.36-.36Z"/><circle class="cls-3" cx="203.75" cy="158.57" r="155.02" transform="translate(-52.45 190.52) rotate(-45)"/><path class="cls-4" d="M89.8,148.65a23.83,23.83,0,0,0-10.55-9.27l-2.35,1.1,5.29,9.61A10.33,10.33,0,0,1,79,155.81v0a10.28,10.28,0,0,1-6.46-1.19l-4-10.22-2.35,1.1a23.84,23.84,0,0,0,.33,14s1,2.31,1.18,2.51c.93,1.09,3.36,2.35,8,2.05L91.93,195a8.47,8.47,0,1,0,8.76-4.09L87.38,158.66c3.17-3.34,3.84-6,3.6-7.5C90.93,150.84,89.8,148.65,89.8,148.65ZM103.13,202l-4.29,2L95,201.25l.41-4.72,4.3-2,3.88,2.72Z"/><path class="cls-5" d="M91,151.16a23.82,23.82,0,0,0-10.56-9.26L78.07,143l5.3,9.6a10.33,10.33,0,0,1-3.24,5.72h0a10.31,10.31,0,0,1-6.47-1.19l-4-10.22L67.33,148a23.76,23.76,0,0,0,.34,14s3.66,4.92,9.23,4.57l16.2,30.91a8.48,8.48,0,1,0,8.76-4.09l-13.3-32.25C92.39,157.12,91,151.16,91,151.16Zm13.32,53.31-4.29,2-3.88-2.72.41-4.71,4.29-2,3.88,2.71Z"/><rect class="cls-6" x="66.62" y="144.8" width="2.59" height="2.78" transform="translate(-55.5 42.49) rotate(-25.04)"/><rect class="cls-6" x="77.36" y="139.8" width="2.59" height="2.78" transform="translate(-52.37 46.57) rotate(-25.04)"/><rect class="cls-6" x="99.2" y="202.83" width="4.74" height="2.78" transform="translate(-76.9 62.19) rotate(-25.04)"/><path class="cls-7" d="M80.37,168.9l13.08,25.15a6.41,6.41,0,0,0,5.29-2.47L88.08,165.29A10.06,10.06,0,0,0,80.37,168.9Zm17.36,22.89a7.7,7.7,0,0,1-1.7,1.1,6.12,6.12,0,0,1-1.8.54L81.12,168.8a13.43,13.43,0,0,1,3.15-2.07,11,11,0,0,1,3.24-.95Z"/><path class="cls-6" d="M97.73,191.79l1-.21a5.68,5.68,0,0,1-5.29,2.47l.78-.62A7.1,7.1,0,0,0,97.73,191.79Z"/><path class="cls-8" d="M80.37,168.9l.75-.1a12.21,12.21,0,0,1,6.39-3l.57-.49a7.9,7.9,0,0,0-4.27.92A7.82,7.82,0,0,0,80.37,168.9Z"/><path class="cls-9" d="M76.9,166.6a28.93,28.93,0,0,0,11.66-5.43l1.7,4.13s-1.93-1.91-6.17-.19c-5,2-4.68,6-4.68,6Z"/><path class="cls-10" d="M90.26,165.3a5.11,5.11,0,0,0-2.59-.9L100.33,195l1.53-1.58Z"/><path class="cls-11" d="M90.26,165.3s-1.33,4.09,2.48,6Z"/><path class="cls-12" d="M280.94,363h-47c-4.92-27.32-16.36-62.87-16.36-62.87-2.78-1.65-8.21.38-8.21.38L192.18,363H149.24c-2.28-38.56,18.82-82.33,18.82-82.33h0a4.73,4.73,0,0,1-.56-2.39,5.68,5.68,0,0,1,1.6-1.86c1.16-1.06,2.54-2.12,2.54-2.12l80.11-.5s.81.41,1.84,1h0c1.75,1.06,4.12,2.7,4.12,3.9a5.47,5.47,0,0,1-.81,3l0,0C274,314.18,280.94,363,280.94,363Z"/><ellipse class="cls-13" cx="171.56" cy="330.95" rx="46.31" ry="17.92" transform="translate(-189.49 423.72) rotate(-77.01)"/><ellipse class="cls-14" cx="254.76" cy="330.5" rx="17.92" ry="46.31" transform="translate(-79.73 81) rotate(-15.65)"/><path class="cls-15" d="M186.62,363.08l-.49-.08c5.47-32.2,19.34-59.21,19.48-59.48l.06-.07,3.53-3.09.33.38-3.5,3.05C205.41,305,192,331.55,186.62,363.08Z"/><path class="cls-16" d="M240.31,363.08c-5.35-31.55-19.15-58.35-19.78-59.54l-3.12-2.81.33-.37,3.22,2.91c.14.27,14.38,27.53,19.85,59.73Z"/><path class="cls-17" d="M257.71,278.76a5.47,5.47,0,0,1-.81,3l0,0c-16.68,3.77-29.37,19.34-29.37,19.34,9.09,17.44,24.25,61.93,24.25,61.93H233.93c-4.92-27.32-16.36-62.87-16.36-62.87-2.78-1.65-8.21.38-8.21.38L192.18,363H181.06c4-26.18,15.73-58.14,15.73-58.14-11.55-13.45-28.73-24.19-28.73-24.19h0l-2-1.28,1.48-1.11c7.43,7.13,31.39,16.44,32.13,16.73l-30.53-18.59c1.16-1.06,2.54-2.12,2.54-2.12l80.11-.5s.81.41,1.84,1l-21.88,12Z"/><polygon class="cls-18" points="217.57 300.17 226.93 294.1 224.7 300.17 223.07 318.43 217.57 300.17"/><polygon class="cls-19" points="209.36 300.55 199.62 295.04 178.77 285.65 205.32 303.19 206.91 309.49 209.36 300.55"/><path class="cls-20" d="M236.16,112.69c.06.43.11.66.11.66a57.27,57.27,0,0,1-1.66,5.66,46,46,0,0,1-6.23,12.12,23.85,23.85,0,0,1-2.72,3.18c-14.59-4.58-21.78-18.85-24.54-25.95a.36.36,0,0,1,0-.11c-.53-1.34-.88-2.42-1.1-3.12h0c-.17-.56-.25-.87-.25-.87l.18-.37,0,0c.24-.5.48-1,.7-1.5a71.16,71.16,0,0,0,4-11.17c.71-2.62,1.09-4.64,1.27-5.71.09-.55.13-.85.13-.85l6.8,3.59,23.43,12.4a38.55,38.55,0,0,0-.5,5.94c0,1.25,0,2.37.09,3.32.07,1.16.19,2.08.28,2.68h0A.68.68,0,0,0,236.16,112.69Z"/><path class="cls-21" d="M229.66,135.88a20.1,20.1,0,0,1-4.84,3.54l-.12.07-.14-.08h0c-.51-.31-2.25-1.38-4.59-3.14-6.12-4.61-16.34-13.93-19.26-26.49l0,0a31.14,31.14,0,0,1-.7-4.59h0c0-.41-.06-.82-.07-1.24a64.43,64.43,0,0,0,5.55,9.92c4.14,6.06,10.35,12.67,17.77,12.71,6.42,0,9.71-4.35,11.38-8.4a22.92,22.92,0,0,0,1.35-4.6,0,0,0,0,0,0,0c.07-.36.12-.68.17-.95h0c0-.14,0-.26.05-.37.06-.45.08-.71.08-.71S238.73,126.81,229.66,135.88Z"/><path class="cls-22" d="M229.66,135.88a20.1,20.1,0,0,1-4.84,3.54h-.27c-.51-.31-2.25-1.38-4.59-3.14-6.12-4.61-16.34-13.93-19.26-26.49l0,0a31.14,31.14,0,0,1-.7-4.59h0c0-.41-.06-.82-.07-1.24a64.43,64.43,0,0,0,5.55,9.92s4,11.1,12.78,16.6c4.38,2.75,7.7,2.35,10.14.73a15.09,15.09,0,0,0,5-6.54,15.38,15.38,0,0,0,1.28-5.58q0-.49,0-.9a22.92,22.92,0,0,0,1.35-4.6,0,0,0,0,0,0,0c.07-.36.12-.68.17-.95h0c0-.14,0-.26.05-.37.06-.45.08-.71.08-.71S238.73,126.81,229.66,135.88Z"/><path class="cls-23" d="M285.82,226.57l-.16.08c-.82.1-3.37-.46-6.71-3.35h0l0,0,0,0c-2.8-2.45-6.16-6.54-9.51-13.24-6.7-13.39-8.62-22.33-8.93-23.89l0-.24-3.91,6.2c-2.65,8-7.67,40.95-7.58,42.37s4.45,8.34,4.36,9.19v0c-.12.86-2.08,2.75-2.64,4.81-.38,1.37,2.28,5.69,4.15,8.92h0a13.13,13.13,0,0,1,1.72,3.58c0,1.51-4.74,8.9-4.74,8.9v4l-.07.07-.22.2-.18.15c-1.8,1.42-9.43,6.07-33.27,7.35-28.25,1.51-47.07-7.58-47.07-7.58l1.42-3.89s-1.32-1.13-1.42-1.7,1-1.9,1-1.9-2.84-1.51-2.84-3.41,5.69-7.76,5.5-12.79-4.55-9.47-5.12-12.31,7.39-9.85,7.39-9.85c-6.82-21.6-8.15-50.59-8.15-50.59l-1.32-1.52s-8.15,18.57-15.54,27.66c-.88,1.08-1.81,2.15-2.77,3.18a81,81,0,0,1-6.36,6.15c-5.12,4.46-9.77,7.39-10.95,7.16-1.9-.38-9.48-15.35-9.13-30.7.16-7.3,4.56-15.47,9.13-22,.49-.7,1-1.39,1.48-2.06a104.89,104.89,0,0,1,7.84-9.45c.58-.62.91-.95.91-.95s-1-3.35-1.75-6.26a1.6,1.6,0,0,0,0-.21.36.36,0,0,0,0-.1.31.31,0,0,0,0-.07c-.42-1.79-.68-3.34-.44-3.72.63-1,4.3-2.15,4.93-2.9s3.28-13.52,5.3-14.91,5.35-2.3,16.72-6.77l1.73-.68c12.75-5,25.26-11.18,25.26-11.18l4.8-5.9h2.14l-.7,1.5,0,0c.34,1.52.73,3,1.17,4.37a.36.36,0,0,0,0,.11c6.6,20.82,23.58,27.53,23.58,27.53,11.8-8.71,11.57-22.54,11.57-22.54v-1.9l2.21.66,1.51,3.6s2.56,4,12.7,8.44a60.32,60.32,0,0,1,5.57,2.85c9.28,5.27,19.6,13.42,20.39,15.15a5.61,5.61,0,0,1,.27.86h0c1.09,4.28,3.33,20.31,5.41,26a13.1,13.1,0,0,0,4.86,6.56h0a7.61,7.61,0,0,0,1.94,1q.24,1.32.45,2.61C296,206.66,287.68,225.27,285.82,226.57Z"/><path class="cls-24" d="M177,174.81l-8.24,2.77-1.32-1.52s-8.15,18.57-15.54,27.66c-.88,1.08-1.81,2.15-2.77,3.18a81,81,0,0,1-6.36,6.15L136.48,186l-3.19-20.55a104.89,104.89,0,0,1,7.84-9.45c.58-.62.91-.95.91-.95s-1-3.35-1.75-6.26a1.6,1.6,0,0,0,0-.21.36.36,0,0,0,0-.1.31.31,0,0,0,0-.07c-.42-1.79-.68-3.34-.44-3.72.63-1,4.3-2.15,4.93-2.9s3.28-13.52,5.3-14.91c0,0-1.32,12.25,5.69,27.79l3.41,4.8,10,8S172.86,172.5,177,174.81Z"/><path class="cls-25" d="M153.15,197c-1.77,13.13-21.34,23.24-21.34,23.24-4.36,0-9.23-7.58-13.65-16.93s-4.69-36.21-4.92-37.87-2.7-5-2.85-6.4,4-4.36,4-4.36l0-.07,0-.07c-.43-.92-2.85-6.11-2.68-7.06s4.82-3.31,4.82-3.31l.29,5.11s10.78-2,14.43-10.39l.64-2.56,1.8,1.2v11s.37,1.71.94,1.71,4.77-2.1,5.65-1.81,1.76,6.17,2.94,6.92,4.3,2.94,4.77,4a19,19,0,0,1,.25,4.15,42.4,42.4,0,0,0,.41,6.94C149.24,173.31,154.92,183.83,153.15,197Z"/><path class="cls-26" d="M332.14,185.72c-.88,1.39-5.3,4.3-6.44,5.44s0,4.87,0,4.87a153.35,153.35,0,0,1-39.88,30.54l-.16.08C274,218.81,275,205.9,278.87,195a82.1,82.1,0,0,1,10.32-19.38h0a24.41,24.41,0,0,1,5.92-1.64,3.59,3.59,0,0,1,2.19.68c1.42.88,2.62,2.27,3.78,1.69,1.71-.86,5.53-9.89,8.12-10.14,1.81-.17,4.32,1.67,6,2.72.73.46,1.3.77,1.58.69.95-.25,4.17-4.11,4.43-4.21s1.72,1,1.72,1l-1,1.28a35,35,0,0,0,6.76,15.22l3.47-5.08S333,184.33,332.14,185.72Z"/><path class="cls-27" d="M236.21,112.3c0,.13,0,.26-.05.39a7.73,7.73,0,0,1-.19.8,0,0,0,0,1,0,0c-1.19,4.41-6,8.92-12.07,6.75-6.63-2.37-19.25-29.1-19.25-29.1l1.27-5.71,30,24.4.33,2.31Z"/><path class="cls-28" d="M136.48,107.41s-1.83-10.11-1-17.56a81,81,0,0,0-.21-15.92,4.06,4.06,0,0,0-3.14,0c-1.32.76-4.42,8.47-3,14.65s.32,21,.32,21h-2.09l-4.54-6.26-2.21-.63s-12.73,12-12.54,19.14l1.66,6.35,15.68-.54L135.6,116Z"/><path class="cls-29" d="M120.57,102.73a81.75,81.75,0,0,0,2.11,14.78,3.54,3.54,0,0,1-3.57,3l-.8-.9s-.57,3.17-3.46,3.41l-2.75-2.75.71,2.27a3.87,3.87,0,0,1-3.6,2.32s-4.35-3.41-4.64-7.86l4.31-3.65v-2.79L114,107l.09-2A12,12,0,0,1,120.57,102.73Z"/><path class="cls-30" d="M135.65,87.71a7.1,7.1,0,0,1-1.85,2.71,16.25,16.25,0,0,1-4.25,1.33l-.14,17.87h-2.09l-4.54-6.26s2.3,3.57,2.44,6.26l-1.8.88-1.56-5.35-.74,3.85.74,4.79a12.53,12.53,0,0,1,7.57-2.41l.74,1.33s-8.83,7.31-10.87,11.62c0,0,4.36-5.54,14.31-11.65l.95-2.94,1.25-7S134.62,92.63,135.65,87.71Z"/><path class="cls-31" d="M143.05,118.84c-.82,2.46-9.41,12.69-10.36,14.91a30,30,0,0,0-1.52,5.11c-4.22,9.13-14.43,10.39-14.43,10.39l-.47-8.24s-5.49-3.16-6.42-4.89v0l-.11-.29a68.8,68.8,0,0,1,0-7.58l9.61-3.89c4.17-5.4,14.31-11.65,14.31-11.65l.47-2.83c-7.28-3.58-6.06-14.41-4.83-15.74a5.4,5.4,0,0,1,3.5-1.32s2.66,8.71,4.36,12.79S143.87,116.38,143.05,118.84Z"/><path class="cls-32" d="M114.09,104.91s1.08,10,4.22,14.69A23.13,23.13,0,0,1,114,107Z"/><path class="cls-32" d="M108.88,110.55s1,8,6,12.46c0,0-4.36-2.18-6-9.67Z"/><path class="cls-33" d="M134,131.63s-10.84,10.52-17.76,9.38l.47,8.24a18.3,18.3,0,0,0,15.07-13A30.43,30.43,0,0,1,134,131.63Z"/><path class="cls-34" d="M363.06,145.93s-9.95,18.19-21.6,23.78h-4l-9.19,13.93s-5.94-3.73-6.38-16A11.17,11.17,0,0,0,324.5,163s-3.28-2.58-4.17-4.47-1.2-7.58-1.83-9.92-6-7.2-7.2-7.83-6.63-.95-6.63-.95-.76-2,0-2.9,9.22-4.24,13.83-1.08a20.77,20.77,0,0,0,.82,3.67c.51,1.26,4.55,5.74,5.18,5.74s3.35-2.27,4.55-4a178.56,178.56,0,0,0,8.74-19.32.5.5,0,0,1,0-.13c0-.07.05-.14.06-.2a.93.93,0,0,0,0-.13s0,0,0,0c1.14-3.85,7.77-11.24,11.31-13.26a2.09,2.09,0,0,1,2.33,1.51s-2.84,8.09-5.81,12.89c-.5.81-1,1.76-1.6,2.78h0c-2.53,4.65-5.38,10.74-5.79,11.63l-.05.11,1.58.81,4.27-4.05,4.38-4.15,10.05,10.61-1,1.26-3.14,4,1.59.29,3.7-4.09Z"/><path class="cls-35" d="M360.74,149.79l-3.18,4.68S340.1,141,336.31,139.87s-5.18-.38-5.18-.38l-3.91,5s7.2,6.38,7.83,15c0,0-2.4-10.86-10.55-14.15.63,0,3.35-2.27,4.55-4a178.56,178.56,0,0,0,8.74-19.32,5,5,0,0,0,.16,3.41c.86,1.59,5.92.09,6.22,0h0L338.38,137l-.05.11,1.58.81,4.27-4.05-2.14,5,15.58,2.75-3.14,4,1.59.29Z"/><path class="cls-36" d="M348.57,129.7s3-.44,5,3.47l-.45,1.27s3,.58,5.81,5.37a16.14,16.14,0,0,1-8.77,6.69s-2.91-.82-3.41-3.28l.56-1.58-2.27,1.7s-2.72.82-3.92-3.22Z"/><path class="cls-37" d="M364,144.67a4.68,4.68,0,0,0-2.47-4.8l-6,6.63a3.11,3.11,0,0,0,2.78,2.59S362.4,147.7,364,144.67Z"/><path class="cls-38" d="M320.33,158.57a44.58,44.58,0,0,0,17.15,11.14l-4.39,6.66-9.17-11.65.58-1.68S320.84,160.28,320.33,158.57Z"/><path class="cls-32" d="M353.11,134.44s-2.9,4.8-5.81,7.2l-.56,1.58s5.63-3.81,7.71-8.21A3.54,3.54,0,0,0,353.11,134.44Z"/><path class="cls-39" d="M332.14,185.72c-.88,1.39-5.3,4.3-6.44,5.44s0,4.87,0,4.87a153.35,153.35,0,0,1-39.88,30.54l-.16.08c-1.52.19-8.91-1.89-16.3-16.67-6.7-13.39-8.62-22.33-8.93-23.89l0-.24,1.63-2.21,2.42-27.28,1.7,5.49c6.44-7.77,12.51-19.7,12.51-19.7l.27.86h0c1.09,4.28,3.33,20.31,5.41,26a13.1,13.1,0,0,0,4.86,6.56v0h0c-5.93,5.41-8.87,13.19-10.32,19.38a53.68,53.68,0,0,0-1.42,10,67.43,67.43,0,0,1,6.82-17,36.5,36.5,0,0,1,7.33-8.85,58.85,58.85,0,0,1,5.72-4.58c1.42.88,2.62,2.27,3.78,1.69-7.8,11.71-7.61,34.89-.28,30.47s9-13.8,9-13.8c-1.73-11.43-1.21-24.33.18-26.78,1.68.06,6.51,3.46,6.79,3.38a39.6,39.6,0,0,0,5.88,22.43l4.17-6.45a40,40,0,0,1-5.62-20.19c.25-.11,1.72,1,1.72,1l-1,1.28a35,35,0,0,0,6.76,15.22l3.47-5.08S333,184.33,332.14,185.72Z"/><path class="cls-40" d="M251.74,269.85v4l-.07.07-.22.2-.18.15c-1.8,1.42-9.43,6.07-33.27,7.35-28.25,1.51-47.07-7.58-47.07-7.58l1.42-3.89s-1.32-1.13-1.42-1.7,1-1.9,1-1.9-2.84-1.51-2.84-3.41c0-1.71,4.64-6.66,5.39-11.31a6.76,6.76,0,0,0,.11-1.48c-.19-5-4.51-9.43-5.11-12.27v0c-.57-2.84,7.39-9.85,7.39-9.85-6.82-21.6-8.15-50.59-8.15-50.59l-1.32-1.52s-8.15,18.57-15.54,27.66-18.19,16.87-20.08,16.49c-4.36,0-9.23-7.58-13.65-16.93s-4.69-36.21-4.92-37.87-2.7-5-2.85-6.4c4.74,8.15,12.29,5.75,12.29,5.75-5.47.12-8.31-10.11-8.31-10.11l0-.07,0-.07-2.67-7c.3.34,6.55,7.33,12.59,3s9.38-13,9.38-13v11s.37,1.71.94,1.71a134.15,134.15,0,0,1-2.74,17.29c-2.81,13.13-6.66,25.81-6.66,25.81s10.44-5.68,14.11-20.08A60.74,60.74,0,0,0,141.13,156a43.22,43.22,0,0,0-.84-7.21,1.6,1.6,0,0,0,0-.21.36.36,0,0,0,0-.1.43.43,0,0,0,0-.05l1,2.14,1.92,4.76c2.23,18.48-2.37,46.33-2.37,46.33,6.7-8.34,8.09-26.78,7.8-31.26-.13-2.14-.3-4.78-.41-6.94-.15-2.36-.25-4.15-.25-4.15l13.71,8.18-2.53-8,10,8s9,10.8,18.19,12.06,43.07.51,43.07.51-29.43,1.89-38,4.42-10.23,5.43-10.23,5.43c6.21,31.59,40.58,42.24,41.65,42.56C192.55,227.77,178,201.26,178,201.26s-.51,14.91,1.89,20.59,16.55,19.58,34.74,22.48a41.89,41.89,0,0,0,4.53.46c15.34.72,28-7.12,29.34-8l.11-.07,0,.05c-.49.75-6.78,9.59-32.18,10.56-1.54.06-3,0-4.5,0h0c-23.54-1-35.53-16.67-35.53-16.67s-8.71,4.68-3.15,11.62l.18.22c1.64,1.89,5.25,4.2,9.52,6.58l.35.2c5.16,2.85,11.21,5.79,15.89,8.22l.07,0a59.23,59.23,0,0,1,6.52,3.73h0c1.32,1,1.59,1.58.3,1.73-6.57.76-31.45-4.67-32.46-3.16s1.23,5.43,1.23,5.43c22.84,11.32,71.71,5.74,73.25,5.57-40.9,10.47-74.36-2.79-74.36-2.79l1.11,3.92a146.33,146.33,0,0,0,39.69,6.82c21.48.5,34.87-5,34.87-5Z"/><path class="cls-41" d="M235,179.91s16.27.89,27,3.73l-5.55,8.41A73.59,73.59,0,0,0,235,179.91Z"/><path class="cls-42" d="M250.21,224.75s-10.15,8.47-20.13,12.38a67.34,67.34,0,0,1-19.58,4.3s5.74,1.7,19.86-.57,18.94-9.92,18.94-9.92Z"/><path class="cls-43" d="M254.76,257.36h0c-18.78,4.85-42.62-2.11-42.42-3s6.53.38,21.21-2.56c14.23-2.85,19.39-7.91,19.7-8.22-.12.86-2.08,2.75-2.64,4.81C250.23,249.81,252.89,254.13,254.76,257.36Z"/><path class="cls-44" d="M203.75,182.46c-16,1.63-20.36,6.1-20.36,6.1-4.51.57-14.64-11-14.64-11l-1.32-1.52s-8.15,18.57-15.54,27.66c-.88,1.08-1.81,2.15-2.77,3.18l1-2.36s1.72-.82,2.22-9.85-3.79-22.48-3.82-24.31-.66-11.09-.66-11.09l13.71,8.18-2.53-8,10,8s3.91,5.88,13.78,10.78C192.16,182.88,202.6,182.51,203.75,182.46Z"/><path class="cls-45" d="M167.43,176.06l9.56-1.25a71.76,71.76,0,0,0,11.49,5.65l-6.4,9.43s2.54,13.44,9.82,21c0,0-19.32-10.73-22-19.76Z"/><path class="cls-46" d="M111.64,147.46l2.73,7.19s2.79,9.7,8.31,10.11,10.93-16.27,10.93-16.27v-11s-5.87,12.6-12.22,14S111.64,147.46,111.64,147.46Z"/><path class="cls-47" d="M144.69,141.77s4.93,9.85,11,12.88c0,0-7.21-17.5-5.69-27.79C150,126.86,147.34,128.51,144.69,141.77Z"/><path class="cls-48" d="M264.44,156.36l1.7,5.49,1.73,45.05a108.67,108.67,0,0,1-7.44-20.81l1.6-2.45S264.7,166.66,264.44,156.36Z"/><path class="cls-49" d="M316.79,169.62s-1,22.13,8.45,24l.46,2.37S313.54,195.58,316.79,169.62Z"/><path class="cls-50" d="M301.1,176.35s-.36.79-3.78-1.69c0,0-11.83,8.38-16.38,20.19,0,0,7.29-10.85,11.17-12s4.81,3.16,4.81,3.16S298.46,179.88,301.1,176.35Z"/><path class="cls-51" d="M110.39,159s4.56,8.39,13.08,5.75c0,0-5.11,3.45-10.23.65C113.24,165.41,110.07,160,110.39,159Z"/><path class="cls-52" d="M140.2,148.39s6.26,23.4-10.06,41a27.11,27.11,0,0,0,13-18A38.66,38.66,0,0,0,140.2,148.39Z"/><path class="cls-53" d="M252.34,129.69s-.7,10.56-5.76,18.14-15.11,12.69-15.11,12.69,12.6-4.64,18.38-11.18S252.34,129.69,252.34,129.69Z"/><path class="cls-54" d="M187.89,113.79a66.65,66.65,0,0,0,2.85,17.84c2.84,9,27.51,24.72,27.51,24.72s-25.43-10.56-30.36-20.06S187.89,113.79,187.89,113.79Z"/><path class="cls-55" d="M187.6,155.85v14.39s33.11-.27,70.24,2.19l.85-13A649.49,649.49,0,0,0,187.6,155.85Z"/><path class="cls-56" d="M193.74,159.13c0-.24.13-.36.36-.35l6.71.2a5,5,0,0,1,1.68.3,2.66,2.66,0,0,1,1.11.75,2.77,2.77,0,0,1,.6,1.14,5.63,5.63,0,0,1,.15,1.47l-.06,1.84a5.37,5.37,0,0,1-.24,1.46,2.6,2.6,0,0,1-.66,1.1,2.8,2.8,0,0,1-1.15.68,4.9,4.9,0,0,1-1.71.2l-3.61-.11-.74-2.11h-.1l-.07,2.09-2.53-.08Zm2.34,6.33,4.29.13a1.38,1.38,0,0,0,1-.28,1.58,1.58,0,0,0,.34-1.13l.05-1.49a1.59,1.59,0,0,0-.27-1.15,1.41,1.41,0,0,0-1-.33l-4.11-.13a.24.24,0,0,0-.14,0,.21.21,0,0,0,0,.13Z"/><path class="cls-56" d="M208,163h-.09l-.08,2.68a.15.15,0,0,0,.17.17l7.54.23-.07,2.33-9.89-.3a.32.32,0,0,1-.34-.38l.24-8.21c0-.25.13-.37.37-.36l9.61.29a.34.34,0,0,1,.36.38l-.07,2.33-2.38.8h-.1l0-1.19c0-.09,0-.14-.12-.14l-5.07-.15c-.07,0-.11,0-.13.05a.28.28,0,0,0,0,.12l0,1.11,4.18.13-.06,1.82-3.5-.11Z"/><path class="cls-56" d="M224.74,162.8h-.1l0-1c0-.1,0-.15-.14-.15l-4.72-.15a.5.5,0,0,0-.36.1.49.49,0,0,0-.1.32v.22a.45.45,0,0,0,.07.33.64.64,0,0,0,.33.13l5.53.94a3.65,3.65,0,0,1,.89.25,1.56,1.56,0,0,1,.59.43,1.45,1.45,0,0,1,.32.63,3.78,3.78,0,0,1,.07.87l0,.71a3.18,3.18,0,0,1-.17,1,1.68,1.68,0,0,1-.46.7,2.08,2.08,0,0,1-.83.41,4.57,4.57,0,0,1-1.24.11l-8-.24.07-2.33,7.13.22a.58.58,0,0,0,.43-.1.66.66,0,0,0,.12-.41v-.25a.52.52,0,0,0-.07-.32.45.45,0,0,0-.31-.13l-5.34-.84a4.06,4.06,0,0,1-.92-.25,1.72,1.72,0,0,1-.62-.41,1.46,1.46,0,0,1-.34-.61,3.18,3.18,0,0,1-.08-.86l0-.62a2.06,2.06,0,0,1,.56-1.49,2.26,2.26,0,0,1,1.73-.48l8,.24a.34.34,0,0,1,.37.4l0,1.85Z"/><path class="cls-56" d="M228.1,168.76l.27-8.94,2.54.07-.28,9Z"/><path class="cls-56" d="M240,165.28c0-.13,0-.26,0-.41s0-.27,0-.37v-.11l2.51.07-.14,4.39c0,.23-.11.34-.31.33l-6.74-.2a4.79,4.79,0,0,1-1.68-.31,2.89,2.89,0,0,1-1.11-.74,2.7,2.7,0,0,1-.59-1.14,5.22,5.22,0,0,1-.16-1.47l.06-1.85a5.44,5.44,0,0,1,.24-1.46,2.73,2.73,0,0,1,.66-1.1,2.78,2.78,0,0,1,1.15-.67,4.88,4.88,0,0,1,1.71-.21l6.69.21c.24,0,.35.13.35.38l-.06,1.93-2.38.79h-.09l0-.86c0-.08,0-.12-.1-.12l-4.28-.13a2.89,2.89,0,0,0-.62,0,.86.86,0,0,0-.42.23,1,1,0,0,0-.25.43,3,3,0,0,0-.09.68l-.05,1.57a1.65,1.65,0,0,0,.27,1.14,1.38,1.38,0,0,0,1,.35l4.24.13c.08,0,.13,0,.13-.14Z"/><path class="cls-56" d="M247.85,160.41a.61.61,0,0,1,.39.1.75.75,0,0,1,.21.27l3.2,6.53a.25.25,0,0,0,.23.15H252c.13,0,.2-.06.2-.19l.21-6.73,2.29.07-.26,8.58c0,.24-.12.36-.35.35l-3.64-.11a.84.84,0,0,1-.38-.09.59.59,0,0,1-.23-.29l-3.32-6.52a.25.25,0,0,0-.23-.15h-.12c-.13,0-.2.05-.21.19l-.2,6.72-2.3-.07.26-8.58a.33.33,0,0,1,.36-.36Z"/><path class="cls-57" d="M240,115.71c-.78,9.3-3.61,15.78-6.63,20.15-4.16,6-8.66,8-8.66,8a52,52,0,0,1-11.76-7.09,60,60,0,0,1-19.21-28.5c6,14.54,14.86,23.35,21.56,28.31a43.28,43.28,0,0,0,9.41,5.52V137.5a30.9,30.9,0,0,1-3.1-1.36c-11.8-5.95-18-18.35-20.9-26.37l0,0a57,57,0,0,1-2.18-7.39h2.14l-.7,1.5,0,0c.34,1.52.73,3,1.17,4.37a.36.36,0,0,0,0,.11c6.6,20.82,23.58,27.53,23.58,27.53,11.8-8.71,11.57-22.54,11.57-22.54v-1.9l2.21.66Z"/><path class="cls-58" d="M310,166.24s-3.21,10.48-.18,26.78c0,0,1.52-20.66,2.65-22.46s4.32-.94,4.32-.94A75,75,0,0,0,310,166.24Z"/><path class="cls-59" d="M278.87,223.22c-2.8-2.45-6.16-6.54-9.51-13.24-6.7-13.39-8.62-22.33-8.93-23.89l1.59-2.45,2.13-20.6,2-1.19a84.28,84.28,0,0,0,12.51-19.7,5.61,5.61,0,0,1,.27.86h0c1.09,4.28,3.33,20.31,5.41,26a13.1,13.1,0,0,0,4.86,6.56s-12.31,18.26-12.91,31.29C275.75,218.76,278.39,222.62,278.87,223.22Z"/><path class="cls-60" d="M205.78,261.3s-22.19-3.64-31.25-9.48h0a6.76,6.76,0,0,0,.11-1.48c-.19-5-4.51-9.43-5.11-12.27.1.27.75,1.77,3.9,4.47a66.94,66.94,0,0,0,9.52,6.58l.35.2c6.4,3.78,11.91,6.34,15.89,8.22l.07,0c3.58,1.68,5.9,2.79,6.52,3.73Z"/><path class="cls-61" d="M253.25,243.63c-.12.86-2.08,2.75-2.64,4.81,0,0-8.14,8.62-38.27,6,.2-.85,6.53.38,21.21-2.56C247.78,249,252.94,243.94,253.25,243.63Z"/><path class="cls-62" d="M258.26,127,239,133.24l-5.64,2.62H224.7l-3.1.25-1.64.12-4.67.37-2.35.19-23.1-8.36L185.71,127l-19-6.88,1.73-.68c12.75-5,25.26-11.18,25.26-11.18l4.8-5.9h2.14a71.16,71.16,0,0,0,4-11.17l1.27-5.71c.09-.55.13-.85.13-.85l6.8,3.59,22.93,18.34c0,1.25,0,2.37.09,3.32l.33,2.31c.06-.45.08-.71.08-.71l2.21.66,1.51,3.6s2.56,4,12.7,8.44A60.32,60.32,0,0,1,258.26,127Z"/><path class="cls-63" d="M243.59,109.43a31.37,31.37,0,0,1-18.89-2.78c-9.91-4.8-18.24-19-18.75-22.48s3.79-12.76,3.79-20-3.53-19.58,2.4-26.28,33.22-7.7,42.07.89c0,0,2.74,6.88,2.74,10.77a28.33,28.33,0,0,1-.42,3.91c-.08.59-.19,1.22-.29,1.87-.79,4.71-1.88,10.46-1.37,13a12.64,12.64,0,0,0,.79,2.46h0c1.09,2.52,2.71,4.53,3,6.71C259,80.38,255.22,100.59,243.59,109.43Z"/><path class="cls-64" d="M209.67,62.17s-2.45-6.14-8.61-6.24c0,0-3.6,1.42-4.17,4.17,0,0,1.33,9.95,2.85,14.59s7.07,4,7.07,4A23.55,23.55,0,0,0,209.67,62.17Z"/><path class="cls-65" d="M233.34,82.43a5.61,5.61,0,0,1,2.93.5c.89.67,4.11,3.79,8.18,4.64s6.81-2.61,7.67-2.79,1.83,1,1.83,1a3.43,3.43,0,0,0-2.5-2.06s-.86,3.26-6.76,2.15-8.42-3.75-8.42-3.75l-.3-.53A15.2,15.2,0,0,0,233.34,82.43Z"/><path class="cls-66" d="M224.62,51.84l.08-.64s5.89-10.33,17.55-10.62,14.28,7,14.28,7l2.16-3.27-4.92-10-34.23-.57-8.34,6.73L210.14,57l3.71,21.73,9,4.81,2.55-2.26c-.94-7.28-6.36-13.93-6.36-13.93L223,64.57s10.14,4.91,16,3.44c0,0,4.41-12.86,4.16-22.38C243.16,45.63,228.14,47.85,224.62,51.84Z"/><path class="cls-67" d="M224.1,52.6s.57-3.72,6.86-5.21c7-1.66,12.68-3.06,12.68-3.06s-1.24,4.08-3.57,5.61c0,0-7.41-.27-11.16.58S224.1,52.6,224.1,52.6Z"/><path class="cls-67" d="M256.53,47.6s-3.55,2.74-6,9.28c0,0,2.32-3,4.45-3a1.21,1.21,0,0,1,1.23,1.47A13.69,13.69,0,0,0,256.53,47.6Z"/><path class="cls-68" d="M226.45,63.13s.38-7.86,8.05-9.85a16.1,16.1,0,0,1,3,7.58S233.46,60.1,226.45,63.13Z"/><path class="cls-69" d="M248.43,66.26s.62-6.26,4.22-8.58c0,0,2.45,1.84,2.19,7.08C254.84,64.76,252.69,64,248.43,66.26Z"/><path class="cls-70" d="M226.45,63.13s2.5,3.07,9.47,3.67a11,11,0,0,0,1.21-6S230.71,60.2,226.45,63.13Z"/><path class="cls-70" d="M248.43,66.26v.91s1.07,2.25,4.93,2.63a10.76,10.76,0,0,0,1.34-5.08S252.25,64.11,248.43,66.26Z"/><path class="cls-71" d="M233.91,60.65a8.62,8.62,0,0,0-1.61,5.54,26.68,26.68,0,0,0,3.62.61,9.45,9.45,0,0,0,1.21-6A9.54,9.54,0,0,0,233.91,60.65Z"/><path class="cls-71" d="M252.09,64.83s-1,1.07-1.2,4.37a7.61,7.61,0,0,0,2.47.6,9.18,9.18,0,0,0,1.34-5.08A4.42,4.42,0,0,0,252.09,64.83Z"/><path class="cls-67" d="M233.34,66.43s-.64-4.25,1.8-5.87l2,.25a8.56,8.56,0,0,1-1.21,6S234,66.57,233.34,66.43Z"/><path class="cls-67" d="M253,64.64a18.29,18.29,0,0,0-1.32,4.83,5.37,5.37,0,0,0,1.71.33,8.32,8.32,0,0,0,1.34-5.08A4.15,4.15,0,0,0,253,64.64Z"/><path class="cls-72" d="M226.45,63.13S231.09,60.43,239,62l-1.46-1.11A13.26,13.26,0,0,0,226.45,63.13Z"/><path class="cls-72" d="M248.43,66.26a12.49,12.49,0,0,1,8.06-.93L254.7,64S251.79,63.56,248.43,66.26Z"/><path class="cls-11" d="M231.47,63.13a2.74,2.74,0,0,1,2.4.87A2.19,2.19,0,0,1,231.47,63.13Z"/><path class="cls-11" d="M250.14,66.8s2-.39,2.66.51C252.8,67.31,251.74,68,250.14,66.8Z"/><path class="cls-73" d="M226.92,63.59A18.13,18.13,0,0,0,236.3,68l.15-2.1-.53.89S230.37,66.47,226.92,63.59Z"/><path class="cls-73" d="M248.43,67.17s.64,2.31,5.34,3.35l-.15-1.13-.26.41S250,69.37,248.43,67.17Z"/><path class="cls-74" d="M239,76.4a16.75,16.75,0,0,1,5,0c3.22.37,6.84,1.26,8.82,0,0,0-2.63,2.63-4.91,3s-5.74-1.6-5.74-1.6l-1.52,0A4.13,4.13,0,0,1,239,76.4Z"/><path class="cls-75" d="M240.85,77.85a2.39,2.39,0,0,1,1.45-.38c.67.13,1.34,1.09,1.34,1.09A6.61,6.61,0,0,0,240.85,77.85Z"/><path class="cls-76" d="M252.8,76.4c.84-.83-3.52-8.59-5.6-8.88s-4,8.71-4,8.71l5.71.78C251.68,77.39,252.8,76.4,252.8,76.4Z"/><path class="cls-77" d="M255.91,52c-1.18-.15-5.35,4.92-5.35,4.92s-2.65,8.21-2.13,10.64,7,3.73,7,3.73l.27-.43h0a12.64,12.64,0,0,1-.79-2.46c-.51-2.52.58-8.27,1.37-13a9.67,9.67,0,0,0,.29-1.87C256.56,52.74,256.45,52,255.91,52Z"/><path class="cls-78" d="M255.72,85.3c-1.33-2.78-.51-4.23-12.06-5.74-16.35-2.15-17.75,2.84-20.53,2.08a2.67,2.67,0,0,1-.33-.12c-3-1.17-10.1-8.14-10.28-17.53-.19-9.76,6.35-16.68,6.35-16.68-2.37-2-3.32-7.76-.76-10.23s6.92-1.89,17.62-.76,10.71.48,10.71.48c3.4.87,5.35,4.06,5.9,5.08.11.2.16.32.16.32L253.83,41a17.42,17.42,0,0,1,2.94,10.89s5.87-11.94,5.2-13.63a45.38,45.38,0,0,0-4.82-8h0s-.95-9.09-3.79-9.09-15,2.74-15,2.74a17.22,17.22,0,0,0,1.14-6.72l-.05,0c-4,3.55-7.83,3.94-13.31,6.48A13.87,13.87,0,0,0,221,27.44l-.37.44-.39.47c-.38.48-.77,1-1.24,1.47l-.06.06,0,0a15.68,15.68,0,0,1-1.59,1.49c-3.6,2.93-11.52,4.89-12.47,8s1.2,7.32,2.34,11.68a23.73,23.73,0,0,1,.61,8.21,16.13,16.13,0,0,1,2.52,12c-1.11,6.37-3.54,7.41-3.54,7.41a10.91,10.91,0,0,0-.9,6.79c3.5,13.92,18,22.21,18,22.21,12.88,4.8,21.35,2.71,21.35,2.71h0C254.62,104.25,257.83,84,258,83.09,257.81,83.34,256.07,86,255.72,85.3Zm-5.78,12.89c-2.27-.38-2.75-6.13-3.5-6.89s-4.87-.44-4.87-.44-3.79,4.3-5.3,4.42-9.6-3.16-7.85-8.08,7.85-5.56,7.85-5.56a14.8,14.8,0,0,0,7.89,3c4.74.31,6.45-.56,7-.81s3.62,1.13,3.54,5.43C254.66,92.21,252.22,98.57,249.94,98.19Z"/><path class="cls-79" d="M249.35,69.25s4.09,5.07,3.7,7c-.43,2.08-5.16,3.2-5.16,3.2s3.79-1.31,4.57-3.2A25.05,25.05,0,0,0,249.35,69.25Z"/><path class="cls-80" d="M256.77,51.86A17.42,17.42,0,0,0,253.83,41a29.09,29.09,0,0,0,3.31-10.71h0a36.71,36.71,0,0,1,1.54,7.1l3.28.86C262.64,39.92,256.77,51.86,256.77,51.86Z"/><path class="cls-81" d="M252.34,41.88c-.55-1-2.5-4.21-5.9-5.08,0,0,0,.66-10.71-.48s-15.06-1.7-17.62.76-1.61,8.24.76,10.23c0,0-6.54,6.92-6.35,16.68.18,9.39,7.27,16.36,10.28,17.53l-.14,1s.53,21.5,5.76,23.21,16.06.82,17.07,1.83-.14,2.61-.24,2.76h0s-8.47,2.09-21.35-2.71c0,0-14.48-8.29-18-22.21a10.91,10.91,0,0,1,.9-6.79s2.43-1,3.54-7.41a16.13,16.13,0,0,0-2.52-12,23.73,23.73,0,0,0-.61-8.21c-1.14-4.36-3.29-8.59-2.34-11.68a13.64,13.64,0,0,0,10-2.21S216,35.71,220.67,35s23.54,1.14,23.54,1.14a16.2,16.2,0,0,0-5.87-2.61c-3.76-1-16.6.16-18,.27,1.47-.26,16-2.76,17.69-2.26s8.06,3.41,8.06,3.41c-.57-2.89-6.21-9.85-6.21-9.85a88.48,88.48,0,0,0-13.17,1.23,17,17,0,0,0-7.7,3.54l1.24-1.47.39-.47.37-.44,1.82-.31L232,23.44c3.07-1.64,7-5.7,7.48-6.2l.05,0a17.22,17.22,0,0,1-1.14,6.72c7.72-.95,10.33-.47,10.33-.47C252.22,28.41,252.34,41.88,252.34,41.88Z"/><path class="cls-82" d="M223.89,107.66a47.93,47.93,0,0,1,11.88-.84c7.14.29,11.24.32,9.47,3.55C245.24,110.37,236.27,112.39,223.89,107.66Z"/><path class="cls-83" d="M248.71,23.44s4.35-1.7,6.06-1.42a3.37,3.37,0,0,0-1.39-1.09c-.71-.19-15,3-15,3S247.29,22.87,248.71,23.44Z"/><path class="cls-84" d="M239.9,25.05s-.34,4.72-1.85,6.44l-17.69,2.26-5.19-.92a13.12,13.12,0,0,0,4.22-3.43C221.6,26.82,233.13,24.29,239.9,25.05Z"/><path class="cls-85" d="M257.14,30.26a39.82,39.82,0,0,1,1.55,7.11l3.28.86A23.45,23.45,0,0,0,257.14,30.26Z"/><path class="cls-86" d="M208.94,70.52s-1.24-6-4.29-8.92a7.18,7.18,0,0,0-6.53-2s.95,11.06,1.95,13.76,2.51,3.41,2.51,3.41a8.51,8.51,0,0,1-2.42-5.52c-.28-3.67-.38-8.83.43-9.44s4.06,1.78,4.06,1.78A10.83,10.83,0,0,0,203,68.11c-.61,3.26,1.66,5.63,2.51,5.59s0-3.78.1-4.85S207.65,68,208.94,70.52Z"/><path class="cls-87" d="M205.9,63.1a7.46,7.46,0,0,0-3,6.68c.36,4.48,2.92,4.29,2.93,3.35s-.49-3.37-.23-4.74,2.48-.75,2.48-.75A33,33,0,0,0,205.9,63.1Z"/><path class="cls-88" d="M258,83.09s-4.13,18.87-12.73,27.28C245.24,110.37,255,106.52,258,83.09Z"/><path class="cls-88" d="M253.38,20.93s2.18,1.69,2.6,7.59S253.83,41,253.83,41a23.73,23.73,0,0,0,3.6-10.27C257.75,25.33,255.11,21.61,253.38,20.93Z"/><path class="cls-89" d="M227,33.28a51.22,51.22,0,0,0,10.59,2.21l6.67.6s-2.22-2.16-7-2.81A48.05,48.05,0,0,0,227,33.28Z"/><path class="cls-90" d="M251.35,83.5s2.41,0,3.37,3a25.71,25.71,0,0,1,1,4.5l.86-3.32s-1.12-4.21-2.28-5.16c-.83-.68-2.27-1.37-3-1.2Z"/><path class="cls-91" d="M244.84,80.47l.4,3.6a12.8,12.8,0,0,0,4.9-.57l.34-2.18A26.88,26.88,0,0,0,244.84,80.47Z"/><path class="cls-88" d="M258.26,127s17.23,12.58,19.47,16.91,3.14,17.9,6.16,23.77c0,0-2.07-9.6-3.52-17.14s-1.1-7.64-1.9-9.49S264.79,130.28,258.26,127Z"/><path class="cls-88" d="M255.18,197s-8.31,35.54-7.93,37.94,5.75,7.3,6,8.65c0,0-4.1,5.5-3.91,6.72s7.19,8.92,7,11.3c-.06.7-4.61,8.2-4.61,8.2s5.14-7.38,5.4-8.55-6.3-11-6.49-12c-.5-2.59,3.26-4.5,3.39-6.2s-5.09-5.87-5.14-8.65S255.18,197,255.18,197Z"/><path class="cls-88" d="M256.86,281.77S274.81,322.4,280.94,363C280.94,363,279.91,323.38,256.86,281.77Z"/><path class="cls-76" d="M143.05,118.84s-4.64-1-6.57-5-.67-9.91-.67-9.91a102.45,102.45,0,0,0,5.45,9.35C143.07,115.62,143.56,118.33,143.05,118.84Z"/><path class="cls-92" d="M286.36,97.65l3.22,91.8a6.76,6.76,0,0,0,6.76,6.52H454.47a6.77,6.77,0,0,0,6.77-6.6l2.21-92.87a6.76,6.76,0,0,0-6.81-6.92L293.08,90.65A6.77,6.77,0,0,0,286.36,97.65Z"/><path class="cls-93" d="M454.47,196.22H296.34a7,7,0,0,1-7-6.76l-3.22-91.8a7,7,0,0,1,7-7.26l163.57-1.07a7.06,7.06,0,0,1,5.05,2.1,7,7,0,0,1,2,5.08l-2.21,92.87A7,7,0,0,1,454.47,196.22Zm2.22-106.39h-.05L293.08,90.9a6.52,6.52,0,0,0-6.47,6.74l3.22,91.8a6.49,6.49,0,0,0,6.51,6.28H454.47a6.56,6.56,0,0,0,6.52-6.35L463.2,96.5a6.52,6.52,0,0,0-6.51-6.67Z"/><path class="cls-94" d="M286.6,102.33H463.26l.28-4.84a7.41,7.41,0,0,0-7.45-7.85L292.58,90.93a6.14,6.14,0,0,0-6.08,6.25Z"/><polygon class="cls-95" points="295.48 109.73 295.48 162.86 349.56 162.86 349.56 109.45 295.48 109.73"/><rect class="cls-96" x="401.81" y="113.3" width="23.52" height="23.52"/><rect class="cls-97" x="429.57" y="113.3" width="23.52" height="23.52"/><rect class="cls-98" x="373.6" y="113.3" width="23.52" height="23.52"/><rect class="cls-99" x="392.94" y="150.54" width="60.15" height="5.63"/><rect class="cls-99" x="377.89" y="159.11" width="75.2" height="1.74"/><rect class="cls-99" x="378.6" y="139.82" width="14.39" height="1.74"/><rect class="cls-99" x="406.38" y="139.82" width="14.39" height="1.74"/><rect class="cls-99" x="434.14" y="139.82" width="14.39" height="1.74"/><rect class="cls-99" x="373.6" y="161.94" width="24.19" height="1.74"/><rect class="cls-99" x="377.89" y="164.75" width="75.2" height="1.74"/><rect class="cls-99" x="373.6" y="167.55" width="79.49" height="1.74"/><rect class="cls-99" x="373.6" y="170.35" width="79.49" height="1.74"/><rect class="cls-99" x="377.89" y="181.67" width="75.2" height="1.74"/><rect class="cls-99" x="373.6" y="184.47" width="79.49" height="1.74"/><rect class="cls-99" x="373.6" y="187.27" width="79.49" height="1.74"/><rect class="cls-99" x="373.6" y="173.15" width="76.3" height="1.74"/><rect class="cls-99" x="377.89" y="175.95" width="75.2" height="1.74"/><rect class="cls-99" x="373.6" y="178.75" width="64.41" height="1.74"/><g class="cls-100"><path class="cls-101" d="M310.63,152.2A15.38,15.38,0,1,1,326,136.82,15.4,15.4,0,0,1,310.63,152.2Zm0-29.76A14.38,14.38,0,1,0,325,136.82,14.4,14.4,0,0,0,310.63,122.44Z"/></g><circle class="cls-11" cx="310.63" cy="136.82" r="8.36"/><g class="cls-100"><path class="cls-101" d="M349.56,124.84a15.39,15.39,0,1,1,15.38-15.39A15.4,15.4,0,0,1,349.56,124.84Zm0-29.77a14.39,14.39,0,1,0,14.38,14.38A14.4,14.4,0,0,0,349.56,95.07Z"/></g><circle class="cls-11" cx="349.56" cy="109.45" r="7.87" transform="matrix(0.16, -0.99, 0.99, 0.16, 187.1, 437.75)"/><g class="cls-100"><polygon class="cls-11" points="292.79 95.12 293.91 93.41 299.99 98.74 299.06 100.04 292.79 95.12"/><polygon class="cls-11" points="300.15 95.12 299.02 93.41 292.94 98.74 293.88 100.04 300.15 95.12"/></g><rect class="cls-11" x="404.55" y="94.57" width="54.44" height="2.73"/><polygon class="cls-102" points="118.05 55.16 118.05 78.78 146.31 79.03 146.69 54.4 118.05 55.16"/><polygon class="cls-103" points="146.69 54.4 148.53 57.51 147.61 79 146.31 79.03 146.69 54.4"/><polygon class="cls-11" points="123.1 63.13 125.71 59.35 139.82 71.19 137.65 74.08 123.1 63.13"/><polygon class="cls-11" points="140.18 63.13 137.57 59.35 123.46 71.19 125.63 74.08 140.18 63.13"/><path class="cls-104" d="M184,333.22H87.28a7.92,7.92,0,0,1-7.91-7.74l-1.81-79.31a7.92,7.92,0,0,1,7.92-8.1H186.15a7.91,7.91,0,0,1,7.91,8.14l-2.17,79.31A7.93,7.93,0,0,1,184,333.22Z"/><path class="cls-105" d="M184,333.47H87.28a8.21,8.21,0,0,1-8.16-8l-1.81-79.31a8.18,8.18,0,0,1,8.17-8.36H186.15a8.18,8.18,0,0,1,8.16,8.4l-2.17,79.3A8.13,8.13,0,0,1,184,333.47ZM85.48,238.32a7.68,7.68,0,0,0-7.67,7.85l1.81,79.3a7.71,7.71,0,0,0,7.66,7.5H184a7.63,7.63,0,0,0,7.67-7.46l2.17-79.31a7.68,7.68,0,0,0-7.66-7.88Z"/><rect class="cls-11" x="103.63" y="254.3" width="50.85" height="2.18"/><rect class="cls-11" x="103.63" y="259.59" width="25.42" height="2.18"/><rect class="cls-11" x="103.63" y="264.01" width="25.42" height="2.18"/><rect class="cls-11" x="131.9" y="264.01" width="20.23" height="2.18"/><rect class="cls-11" x="103.63" y="268.43" width="40.99" height="2.18"/><rect class="cls-11" x="103.63" y="272.85" width="14.59" height="2.18"/><rect class="cls-11" x="121.22" y="286.12" width="25.23" height="2.18"/><rect class="cls-11" x="103.63" y="277.28" width="45.73" height="2.18"/><rect class="cls-11" x="103.63" y="281.7" width="35.18" height="2.18"/><rect class="cls-11" x="103.63" y="286.12" width="16.55" height="2.18"/><rect class="cls-11" x="103.63" y="290.54" width="25.42" height="2.18"/><rect class="cls-11" x="103.63" y="294.96" width="7.29" height="2.18"/><rect class="cls-11" x="113.92" y="294.96" width="26.46" height="2.18"/><rect class="cls-11" x="121.22" y="299.25" width="25.23" height="2.18"/><rect class="cls-11" x="103.63" y="299.25" width="16.55" height="2.18"/><rect class="cls-11" x="103.63" y="303.67" width="25.42" height="2.18"/><rect class="cls-11" x="103.63" y="308.09" width="7.29" height="2.18"/><rect class="cls-11" x="113.92" y="308.09" width="26.46" height="2.18"/><path class="cls-106" d="M443.42,71.88A4.47,4.47,0,1,1,439,67.41,4.47,4.47,0,0,1,443.42,71.88Z"/><path class="cls-107" d="M24.52,175.51A5.56,5.56,0,1,1,19,170,5.56,5.56,0,0,1,24.52,175.51Z"/><circle class="cls-108" cx="452.08" cy="71.88" r="4.47"/><circle class="cls-109" cx="163.91" cy="102.6" r="3.16"/><circle class="cls-110" cx="375.56" cy="242.04" r="3.16"/><circle class="cls-111" cx="47.04" cy="273.55" r="2.82"/><path class="cls-112" d="M95.2,245.81H46.4a7.28,7.28,0,0,1-7.28-7L38,206.68a7.28,7.28,0,0,1,7.27-7.53H96.18a7.28,7.28,0,0,1,7.28,7.5l-1,32.1A7.29,7.29,0,0,1,95.2,245.81Z"/><path class="cls-113" d="M95.2,246.06H46.4a7.5,7.5,0,0,1-7.53-7.28l-1.08-32.1a7.52,7.52,0,0,1,7.52-7.78H96.18a7.52,7.52,0,0,1,7.53,7.76l-1,32.1A7.51,7.51,0,0,1,95.2,246.06ZM45.31,199.4a7,7,0,0,0-7,7.27l1.08,32.09a7,7,0,0,0,7,6.8H95.2a7,7,0,0,0,7-6.82l1-32.1a7,7,0,0,0-7-7.24Z"/><polygon class="cls-11" points="59.41 210.68 47.38 224.62 59.63 235.03 59.63 229.66 52.54 223.52 59.12 216.08 59.41 210.68"/><polygon class="cls-11" points="80.56 211.3 92.59 225.25 80.34 235.65 80.34 230.28 87.42 224.15 79.54 215.8 80.56 211.3"/><polygon class="cls-11" points="62.03 235.03 72.51 211.93 77.44 211.93 65.57 235.03 62.03 235.03"/><path class="cls-114" d="M423.53,311.86h-61a9.12,9.12,0,0,1-9.11-8.8L352,262.9a9.1,9.1,0,0,1,9.1-9.42h63.63a9.12,9.12,0,0,1,9.11,9.39L432.63,303A9.11,9.11,0,0,1,423.53,311.86Z"/><path class="cls-113" d="M423.52,312.11h-61a9.32,9.32,0,0,1-9.36-9.05l-1.35-40.15a9.36,9.36,0,0,1,9.35-9.68h63.63a9.38,9.38,0,0,1,9.36,9.65L432.88,303A9.32,9.32,0,0,1,423.52,312.11Zm-62.4-58.38a8.86,8.86,0,0,0-8.85,9.16l1.35,40.16a8.82,8.82,0,0,0,8.86,8.56h61a8.82,8.82,0,0,0,8.86-8.59l1.23-40.15a8.88,8.88,0,0,0-8.86-9.14Z"/><rect class="cls-99" x="364.25" y="259.95" width="55.91" height="33.21"/><polygon class="cls-11" points="387.25 268.19 387.25 284.92 401.54 275.79 387.25 268.19"/><rect class="cls-99" x="364.25" y="299.27" width="55.91" height="3.04"/><rect class="cls-11" x="364.25" y="299.27" width="14.47" height="3.04"/><path class="cls-115" d="M323.29,249.45l-2.92,8.35C322,253.19,324.3,250.19,323.29,249.45Zm-2.92,8.35-2.92,8.35C318.18,265.93,318.75,262.41,320.37,257.8Zm2.92-8.35-2.92,8.35C322,253.19,324.3,250.19,323.29,249.45Zm-2.92,8.35-2.92,8.35C318.18,265.93,318.75,262.41,320.37,257.8Zm8.42,7.23,2.84,1.61,3.06-8.35-3.28-.55c.06-.31.12-.62.16-.93a21.27,21.27,0,0,0,.27-4.16l3.43-2.15-1.56-7.36-3.28,3.14a9.45,9.45,0,0,0-1.69-2.44,7.4,7.4,0,0,0-.56-.56l2-4.64-5.35-1.74h0l-1.29,4.68a8.92,8.92,0,0,0-3.62.84l-.59-4.42-5.89,4.46,1.36,3.92a22.31,22.31,0,0,0-2.87,4.18l-2.83-1.6-3.06,8.35,3.27.55a23.14,23.14,0,0,0-.43,5.09l-3.43,2.15,1.56,7.36,3.29-3.14a9.27,9.27,0,0,0,2.25,3l-2,4.65,5.26,2.05.82-3,.55-2a8.93,8.93,0,0,0,3.63-.84l.58,4.42,5.89-4.46-1.36-3.92a22.46,22.46,0,0,0,2.32-3.2C328.43,265.7,328.61,265.37,328.79,265Zm-8.42-7.23c-1.62,4.61,0,9.37-2.92,8.35s-4-5.6-2.39-10.2,5.3-7.52,8.23-6.5S322,253.19,320.37,257.8Zm2.92-8.35-2.92,8.35C322,253.19,324.3,250.19,323.29,249.45Zm-2.92,8.35-2.92,8.35C318.18,265.93,318.75,262.41,320.37,257.8Z"/><path class="cls-116" d="M331.63,266.64l3.06-8.35-3.12-1.48-.51-.23.33-4.6,3.47-1.69-1.15-7.15-7.54-2.46,1.39,3.32,2.63-5.36-5.35-1.74-2.2-.72-5.27-2.05-1,3.59-4.58-2.17L305.91,240l1.79,4.82-5.51,15.26L299.47,270l5.23.57L303,274.5l5.27,2.05,7.54,2.46-1.21-2.42-.76-1.45,2.79.91,4.76,1.55,5.89-4.46-3.64-4.29,4.6-2.83ZM315.06,256c1.62-4.62,5.3-7.52,8.23-6.5l-2.92,8.35-2.92,8.35C314.52,265.12,313.45,260.55,315.06,256Z"/><path class="cls-117" d="M324.09,264.18l3.05-8.35-3.28-.55a22.57,22.57,0,0,0,.44-5.09l3.43-2.15-1.56-7.36-3.29,3.15a9.21,9.21,0,0,0-2.25-3l2-4.65-5.27-2.05-1.36,5a8.93,8.93,0,0,0-3.63.84l-.58-4.42L305.91,240l1.36,3.92a22.83,22.83,0,0,0-2.88,4.18l-2.83-1.6-3.06,8.35,3.28.55a22.57,22.57,0,0,0-.44,5.09l-3.43,2.15,1.57,7.36,3.28-3.15a9.36,9.36,0,0,0,2.25,3l-2,4.64,5.27,2.05,1.37-5a9.1,9.1,0,0,0,3.62-.85l.58,4.42,5.89-4.46-1.36-3.92a22.83,22.83,0,0,0,2.88-4.18Zm-14.19-.49c-2.93-1-4-5.6-2.38-10.21s5.3-7.51,8.22-6.49,4,5.6,2.38,10.21S312.83,264.71,309.9,263.69Z"/><polygon class="cls-118" points="335.27 250.5 327.73 248.04 324.3 250.19 331.85 252.65 335.27 250.5"/><polygon class="cls-119" points="327.28 273.14 319.73 270.68 318.38 266.76 325.92 269.22 327.28 273.14"/><polygon class="cls-118" points="320.63 240.82 324.77 242.02 326.17 240.69 328.91 241.58 330.19 238.64 322.64 236.18 320.63 240.82"/><path class="cls-118" d="M309.64,271.57l3.95,1.64-.33-2.49A7.17,7.17,0,0,1,309.64,271.57Z"/><path class="cls-118" d="M310.25,248.94l6.65,3.52a10.23,10.23,0,0,1,1.71-1.81S316.88,243.31,310.25,248.94Z"/><polygon class="cls-120" points="157.49 0 163.91 12.85 159.62 14.8 153.62 3 157.49 0"/><polygon class="cls-121" points="13.04 299.34 18.98 305.86 21.31 303.17 15.71 297 13.04 299.34"/><polygon class="cls-122" points="314.82 78.41 308.84 82.03 306.44 77.49 312.98 73.67 314.82 78.41"/><polygon class="cls-122" points="344.26 308.12 335.69 314.21 333.3 309.66 341.62 304.8 344.26 308.12"/><polygon class="cls-123" points="332.94 47.33 331.49 13.68 375.56 13.68 373.75 47.24 332.94 47.33"/><polygon class="cls-124" points="331.49 13.68 330.17 15.66 331.49 47.33 332.94 47.33 331.49 13.68"/><polygon class="cls-11" points="346.13 20.4 339.21 19.66 340.16 42.72 346.13 42.13 346.13 39.75 342.67 39.83 342.27 22.04 346.13 22.15 346.13 20.4"/><polygon class="cls-11" points="360.29 20.4 367.2 19.66 366.26 42.72 360.29 42.13 360.29 39.75 363.75 39.83 364.14 22.04 360.29 22.15 360.29 20.4"/><polygon class="cls-125" points="29.06 121.02 30.04 98.07 0 98.07 1.24 120.95 29.06 121.02"/><polygon class="cls-126" points="30.04 98.07 30.94 99.42 30.04 121.02 29.06 121.02 30.04 98.07"/><path class="cls-11" d="M18.47,102.69a20,20,0,0,1,3.88.14c.58.27-.16,5.64-.16,5.64l1.32,1.2-1.23,1.19s.07,5.44-.71,5.89-3.42,0-3.42,0V115.4a7.92,7.92,0,0,0,2.52-.16c.35-.29.32-5,.32-5l.58-.64-.58-.69s.11-3.38,0-4.31c0-.62-2.56-.66-2.56-.66Z"/><path class="cls-11" d="M10.92,102.69a19.87,19.87,0,0,0-3.87.14c-.58.27.15,5.64.15,5.64l-1.31,1.2,1.22,1.19s-.06,5.44.71,5.89,3.43,0,3.43,0V115.4a7.91,7.91,0,0,1-2.52-.16c-.36-.29-.32-5-.32-5l-.59-.64.59-.69s-.11-3.38-.05-4.31c.05-.62,2.56-.66,2.56-.66Z"/><path class="cls-93" d="M282.56,50.37,275.2,31.1l19.09,4ZM276,31.78l6.72,17.57,10.7-13.94Z"/><rect class="cls-93" x="332.89" y="318.75" width="10.94" height="0.5" transform="matrix(0.59, -0.81, 0.81, 0.59, -118.96, 403.31)"/><polygon class="cls-93" points="274.62 242.2 267.67 233.55 268.06 233.24 275.01 241.88 274.62 242.2"/><polygon class="cls-93" points="60.29 302.92 46.42 292.86 46.72 292.45 60.58 302.51 60.29 302.92"/><rect class="cls-93" x="44.94" y="297.44" width="17.13" height="0.5" transform="translate(-215.72 159.86) rotate(-52.7)"/><rect class="cls-93" x="33.29" y="147.76" width="0.5" height="10.14" transform="translate(-117.35 111.44) rotate(-62.28)"/><polygon class="cls-93" points="382.75 34.41 382.38 34.08 392.75 22.25 393.13 22.58 382.75 34.41"/><rect class="cls-93" x="183.14" y="62.59" width="0.5" height="10.41" transform="translate(-11 88.78) rotate(-26.45)"/><rect class="cls-93" x="105.83" y="224.77" width="15.54" height="0.5" transform="translate(-117.91 125.31) rotate(-39.91)"/></g></g></g></svg>